<svg width="97" height="30" viewBox="0 0 97 30" fill="none" xmlns="http://www.w3.org/2000/svg">
<path d="M27.7895 21.2616C27.6374 20.896 27.4948 20.5116 27.3428 20.1835L26.6395 18.6178L26.611 18.5897C24.5201 14.0897 22.2866 9.51472 19.9201 5.01472L19.8251 4.82722C19.5875 4.38659 19.3499 3.89909 19.1028 3.44909C18.7987 2.91472 18.504 2.34284 18.0193 1.79909C17.5469 1.23015 16.9522 0.77177 16.2784 0.45702C15.6045 0.14227 14.8682 -0.0209961 14.1227 -0.0209961C13.3771 -0.0209961 12.6408 0.14227 11.9669 0.45702C11.2931 0.77177 10.6985 1.23015 10.226 1.79909C9.77932 2.34284 9.44668 2.91472 9.14255 3.44909C8.90495 3.93659 8.66735 4.41472 8.42024 4.85534L8.3252 5.04284C5.99671 9.54284 3.72525 14.1178 1.63436 18.6178L1.57733 18.6741C1.36825 19.1616 1.12114 19.6678 0.88354 20.2116C0.731475 20.5397 0.579411 20.896 0.427346 21.2897C0.0168025 22.3208 -0.114297 23.4396 0.046968 24.5358C0.208233 25.632 0.656296 26.6679 1.347 27.5414C2.0377 28.4148 2.9472 29.0956 3.98587 29.5167C5.02454 29.9378 6.15652 30.0847 7.27025 29.9428C8.338 29.8042 9.36615 29.4534 10.2925 28.9116C11.5281 28.2272 12.7161 27.2335 14.0466 25.7991C15.3772 27.2335 16.5937 28.2272 17.8007 28.921C18.9615 29.593 20.2759 29.9639 21.6214 29.9991C23.1794 30.0055 24.6872 29.4556 25.8663 28.451C27.0454 27.4464 27.8163 26.0549 28.0366 24.5335C28.2911 23.4401 28.205 22.2965 27.7895 21.2522V21.2616ZM14.1417 22.8178C12.507 20.7553 11.4425 18.8616 11.0814 17.2397C10.9317 16.6387 10.8995 16.0151 10.9863 15.4022C11.0529 14.9241 11.2334 14.5022 11.4805 14.146C12.0508 13.3303 13.0487 12.8241 14.1417 12.8241C14.6607 12.8085 15.1756 12.9202 15.6401 13.1493C16.1045 13.3783 16.5041 13.7176 16.8028 14.1366C17.0499 14.5116 17.2305 14.9241 17.2875 15.4022C17.3826 15.946 17.3445 16.5741 17.1925 17.2397C16.8313 18.8335 15.7669 20.746 14.1417 22.8178ZM26.2498 24.2053C26.1418 24.9778 25.8305 25.7088 25.347 26.3257C24.8634 26.9425 24.2244 27.4236 23.4936 27.721C22.7713 28.021 21.973 28.1053 21.1937 28.021C20.4333 27.9272 19.673 27.6835 18.8937 27.2335C17.5997 26.4446 16.4362 25.4644 15.4437 24.3272C17.4396 21.8897 18.6466 19.6678 19.1028 17.6897C19.3214 16.7522 19.3499 15.9085 19.2548 15.1303C19.1362 14.3928 18.8574 13.6893 18.4375 13.0678C17.9581 12.394 17.3182 11.8467 16.5742 11.474C15.8301 11.1013 15.0046 10.9146 14.1702 10.9303C12.4119 10.9303 10.8438 11.7366 9.89337 13.0585C9.46553 13.6783 9.18903 14.3875 9.08552 15.1303C8.96197 15.9178 8.99048 16.7897 9.23759 17.6897C9.69378 19.6678 10.9293 21.9178 12.8966 24.346C11.921 25.5049 10.7548 26.4937 9.44668 27.271C8.65784 27.721 7.90702 27.9553 7.1467 28.0491C5.96429 28.1985 4.76988 27.8815 3.8231 27.167C2.87632 26.4525 2.25369 25.3983 2.09055 24.2335C1.99551 23.4835 2.06204 22.7335 2.36617 21.8897C2.46121 21.5897 2.60377 21.2897 2.75584 20.9335C2.96492 20.446 3.21203 19.9397 3.44963 19.4335L3.48765 19.3678C5.54052 14.896 7.78347 10.3303 10.112 5.85847L10.207 5.67097C10.4446 5.22097 10.6822 4.74284 10.9293 4.29284C11.1764 3.81472 11.4425 3.35534 11.7847 2.98034C12.0808 2.63161 12.4509 2.35116 12.8688 2.15873C13.2867 1.96631 13.7423 1.86658 14.2034 1.86658C14.6646 1.86658 15.1202 1.96631 15.5381 2.15873C15.956 2.35116 16.3261 2.63161 16.6222 2.98034C16.9549 3.35534 17.2305 3.81472 17.4776 4.29284C17.7152 4.74284 17.9528 5.23034 18.1999 5.67097L18.2949 5.85847C20.6139 10.3303 22.8569 14.896 24.9478 19.3678L24.9763 19.396C25.2234 19.8835 25.4325 20.4272 25.6701 20.896C25.8221 21.2616 25.9742 21.5522 26.0692 21.8616C26.2498 22.7053 26.3449 23.4553 26.2498 24.2053V24.2053ZM39.4794 22.6116C38.7633 22.6219 38.0539 22.4731 37.404 22.1761C36.7542 21.8791 36.1804 21.4416 35.7253 20.896C34.7028 19.7334 34.1601 18.2345 34.2047 16.696C34.189 15.124 34.7493 13.5993 35.7824 12.4022C36.2602 11.8497 36.8551 11.4072 37.525 11.1059C38.195 10.8046 38.9238 10.6519 39.66 10.6585C40.3528 10.6398 41.039 10.7952 41.6542 11.11C42.2693 11.4249 42.7932 11.8889 43.1765 12.4585L43.2715 10.9866H46.0467V22.3116H43.262L43.167 20.6616C42.7718 21.2697 42.2256 21.7681 41.5802 22.1094C40.9348 22.4507 40.2116 22.6235 39.4794 22.6116V22.6116ZM40.2017 19.9116C40.753 19.9116 41.2377 19.7616 41.6939 19.4897C42.1121 19.1897 42.4542 18.796 42.7203 18.3178C42.9579 17.8397 43.0815 17.2678 43.0815 16.6303C43.1185 16.0767 43.0093 15.523 42.7644 15.0234C42.5195 14.5238 42.1474 14.0955 41.6844 13.7803C41.2395 13.5069 40.7259 13.362 40.2017 13.362C39.6776 13.362 39.164 13.5069 38.7191 13.7803C38.3009 14.0803 37.9588 14.4741 37.6927 14.9522C37.4413 15.4795 37.3177 16.0572 37.3315 16.6397C37.2945 17.1934 37.4037 17.7471 37.6486 18.2467C37.8935 18.7462 38.2656 19.1745 38.7286 19.4897C39.1753 19.7616 39.66 19.9116 40.2017 19.9116ZM50.7987 7.93034C50.7987 8.25847 50.7417 8.55847 50.5897 8.80222C50.4376 9.03659 50.2285 9.25222 49.9529 9.40222C49.6773 9.55222 49.3826 9.60847 49.0785 9.60847C48.7744 9.60847 48.4703 9.55222 48.1946 9.40222C47.934 9.25907 47.7148 9.05252 47.5579 8.80222C47.4107 8.53515 47.3385 8.23415 47.3488 7.93034C47.3488 7.59284 47.4153 7.29284 47.5579 7.05847C47.7099 6.77722 47.9285 6.60847 48.1946 6.45847C48.4703 6.30847 48.7649 6.24284 49.0785 6.24284C49.381 6.23597 49.6802 6.30664 49.9467 6.44796C50.2133 6.58928 50.4381 6.79641 50.5992 7.04909C50.7375 7.32242 50.806 7.62494 50.7987 7.93034V7.93034ZM47.5674 22.2741V10.9678H50.5897V22.2928H47.5579L47.5674 22.2741ZM58.6681 13.9303V13.9678C58.5255 13.9022 58.3354 13.8741 58.1929 13.846C58.0028 13.8085 57.8507 13.8085 57.6702 13.8085C56.8243 13.8085 56.1875 14.0522 55.7694 14.5585C55.3132 15.0741 55.1041 15.796 55.1041 16.7241V22.2835H52.0723V10.9585H54.857L54.952 12.6741C55.2561 12.0741 55.6173 11.6241 56.1305 11.2866C56.641 10.9587 57.242 10.7949 57.8507 10.8178C58.0693 10.8178 58.2784 10.8366 58.459 10.8741C58.554 10.9022 58.6111 10.9022 58.6681 10.9303V13.9303V13.9303ZM59.8846 22.2741V6.31784H62.9069V12.4116C63.3346 11.8678 63.8193 11.446 64.4275 11.1178C65.3905 10.6521 66.4844 10.52 67.5328 10.7428C68.5812 10.9657 69.5229 11.5304 70.206 12.346C71.2308 13.5109 71.7737 15.0136 71.7266 16.5553C71.7423 18.1273 71.182 19.652 70.149 20.8491C69.6711 21.4016 69.0762 21.8441 68.4063 22.1454C67.7363 22.4467 67.0076 22.5994 66.2713 22.5928C65.5785 22.6115 64.8923 22.4562 64.2772 22.1413C63.662 21.8264 63.1382 21.3624 62.7548 20.7928L62.6598 22.2647L59.8846 22.2928V22.2741ZM65.7296 19.9116C66.2713 19.9116 66.756 19.7616 67.2122 19.4897C67.6304 19.1897 67.9725 18.796 68.2387 18.3178C68.4858 17.8397 68.5998 17.2678 68.5998 16.6303C68.5998 16.0022 68.4858 15.4303 68.2387 14.9522C67.9891 14.4912 67.6384 14.0909 67.2122 13.7803C66.7674 13.5069 66.2537 13.362 65.7296 13.362C65.2055 13.362 64.6918 13.5069 64.247 13.7803C63.8193 14.0803 63.4866 14.4741 63.211 14.9522C62.9597 15.4795 62.836 16.0572 62.8499 16.6397C62.8128 17.1934 62.9221 17.7471 63.167 18.2467C63.4119 18.7462 63.784 19.1745 64.247 19.4897C64.6936 19.7616 65.1784 19.9116 65.7296 19.9116ZM72.8671 22.2835V10.9585H75.6518L75.7468 12.4303C76.0968 11.8661 76.5932 11.4044 77.1847 11.0929C77.7762 10.7814 78.4413 10.6314 79.1113 10.6585C79.8774 10.6454 80.6304 10.8555 81.2761 11.2623C81.9219 11.6692 82.4317 12.2548 82.7418 12.946C83.0745 13.6585 83.255 14.5397 83.255 15.5241V22.3116H80.2233V15.9178C80.2233 15.1303 80.0427 14.5116 79.6815 14.0522C79.3204 13.6022 78.8262 13.3585 78.1989 13.3585C77.7427 13.3585 77.3435 13.4522 76.9919 13.6585C76.6592 13.8741 76.3836 14.146 76.1745 14.5303C75.9631 14.9189 75.8583 15.3552 75.8704 15.796V22.2835H72.8671V22.2835ZM84.7662 22.2835V6.30847H87.798V12.4022C88.2086 11.8554 88.7428 11.4106 89.3582 11.103C89.9736 10.7955 90.6531 10.6336 91.343 10.6303C92.0591 10.62 92.7685 10.7689 93.4184 11.0659C94.0682 11.3629 94.642 11.8004 95.0971 12.346C96.1146 13.5108 96.6536 15.009 96.6082 16.546C96.6247 18.1181 96.0644 19.6431 95.0305 20.8397C94.5527 21.3923 93.9578 21.8348 93.2879 22.136C92.6179 22.4373 91.8892 22.59 91.1529 22.5835C90.4601 22.6022 89.7739 22.4468 89.1587 22.1319C88.5436 21.817 88.0197 21.353 87.6364 20.7835L87.5509 22.2553L84.7662 22.2835V22.2835ZM90.6397 19.9116C91.1909 19.9116 91.6756 19.7616 92.1223 19.4897C92.55 19.1897 92.8826 18.796 93.1582 18.3178C93.3958 17.8397 93.5194 17.2678 93.5194 16.6303C93.5564 16.0767 93.4472 15.523 93.2023 15.0234C92.9574 14.5238 92.5853 14.0955 92.1223 13.7803C91.6774 13.5069 91.1638 13.362 90.6397 13.362C90.1155 13.362 89.6019 13.5069 89.157 13.7803C88.7389 14.0803 88.3967 14.4741 88.1306 14.9522C87.8653 15.4748 87.7409 16.056 87.7695 16.6397C87.7324 17.1934 87.8417 17.7471 88.0866 18.2467C88.3314 18.7462 88.7036 19.1745 89.1665 19.4897C89.6132 19.7616 90.0694 19.9116 90.6397 19.9116Z" fill="#FF385C"/>
</svg>
