<svg width="103" height="70" viewBox="0 0 103 70" fill="none" xmlns="http://www.w3.org/2000/svg">
<path fill-rule="evenodd" clip-rule="evenodd" d="M28.0198 37.2829C32.8695 40.3587 38.8664 42.211 45.0606 42.211C49.239 42.211 53.8322 41.2659 58.0585 39.3123C58.6958 39.0173 59.2302 39.7701 58.6063 40.2718C54.8366 43.3039 49.3709 44.9166 44.6647 44.9166C38.0685 44.9166 32.129 42.2594 27.6337 37.8358C27.2808 37.4885 27.5957 37.0138 28.0198 37.2829ZM62.0546 37.6554C62.4789 38.1435 61.9438 41.5226 59.8724 43.1351C59.5537 43.3833 59.2509 43.2511 59.392 42.9232L59.6362 42.3496C60.1388 41.1475 60.8266 39.3258 60.4073 38.8264C59.9132 38.2377 57.1427 38.5474 55.8983 38.6859C55.5213 38.728 55.4627 38.4219 55.8027 38.1995C58.0126 36.7548 61.6337 37.1721 62.0546 37.6554ZM40.1293 25.6342C40.9539 25.6342 41.8516 25.9745 42.4014 26.7403C42.9933 27.5485 42.9073 28.7025 42.8972 29.7461L42.8948 36.2888C42.8948 36.4908 42.7252 36.6528 42.5163 36.6528H40.5555C40.3584 36.64 40.203 36.4834 40.203 36.2897L40.2026 30.9308C40.2026 30.5054 40.2393 29.4418 40.1476 29.0376C40.0011 28.3569 39.5613 28.1655 38.9933 28.1655C38.517 28.1655 38.022 28.4845 37.8205 28.9952C37.6694 29.3781 37.642 29.9523 37.6377 30.4578L37.6375 36.2888C37.6375 36.4908 37.4678 36.6528 37.2587 36.6528H35.2982C35.1011 36.64 34.9457 36.4834 34.9457 36.2897L34.9437 30.9308C34.9437 29.8035 35.1269 28.1442 33.7344 28.1442C32.4378 28.1442 32.3791 29.5093 32.3781 30.6385L32.3777 36.2888C32.3779 36.4908 32.2083 36.6528 31.999 36.6528H30.0362C29.8493 36.6405 29.6999 36.4995 29.685 36.3199L29.6864 26.2113C29.6864 26.0091 29.8558 25.8474 30.0651 25.8474L31.8932 25.8469C32.0845 25.8568 32.2381 26.002 32.2501 26.1863V27.5062H32.2869C32.7634 26.2298 33.6611 25.6342 34.8704 25.6342C36.0982 25.6342 36.8677 26.2298 37.4175 27.5062C37.8938 26.2298 38.9748 25.6342 40.1293 25.6342ZM69.3155 25.0833C72.1995 25.0833 73.7591 27.6689 73.7591 30.9556C73.7591 34.1326 72.0364 36.6528 69.3155 36.6528C66.486 36.6528 64.9443 34.067 64.9443 30.8461C64.9443 27.603 66.5041 25.0833 69.3155 25.0833ZM80.251 25.6342C81.1523 25.6342 82.0353 25.9533 82.5988 26.8255C83.0956 27.5888 83.1232 28.8456 83.1247 29.8071L83.1248 36.3342C83.102 36.5136 82.9379 36.6528 82.7391 36.6528H80.7221C80.5358 36.6409 80.3857 36.5071 80.3637 36.3342L80.3655 30.5677C80.3751 29.4881 80.3825 28.123 79.1053 28.123C78.6169 28.123 78.1661 28.442 77.9411 28.9313C77.6851 29.4921 77.6305 30.0528 77.6227 30.6616L77.6216 36.2888C77.6179 36.4908 77.444 36.6528 77.2297 36.6528H75.2252C75.0237 36.64 74.8641 36.4834 74.8641 36.2897L74.8609 26.1773C74.8778 25.9926 75.0447 25.8474 75.2473 25.8474L77.1138 25.8469C77.2893 25.8556 77.4342 25.9731 77.4712 26.13V27.6762H77.5091C78.0726 26.2935 78.8611 25.6342 80.251 25.6342ZM62.6876 25.6342C62.9074 25.6342 63.084 25.7914 63.0845 26.0144L63.084 27.3054C63.0824 27.5219 62.8965 27.8045 62.5661 28.2529L59.0031 33.2423C60.3258 33.2121 61.7248 33.406 62.9267 34.0686C63.1975 34.2178 63.2701 34.4395 63.2915 34.6562V36.2622C63.2915 36.4836 63.0446 36.7397 62.7852 36.6065C60.6678 35.5188 57.8583 35.3998 55.5173 36.6195C55.278 36.7446 55.0276 36.4922 55.0276 36.2708V34.744C55.0276 34.4998 55.0324 34.0819 55.2835 33.7094L59.4116 27.9011L55.8174 27.9004C55.5978 27.9004 55.4214 27.7468 55.42 27.5214V26.0163C55.4209 25.7872 55.5971 25.6345 55.809 25.6349L62.6876 25.6342ZM49.6636 25.1201C50.6355 25.1201 51.9065 25.3798 52.6728 26.1159C53.6449 27.0252 53.5513 28.2372 53.5513 29.5577V32.6735C53.5513 33.6107 53.9404 34.022 54.3056 34.5269C54.4332 34.7089 54.462 34.9253 54.299 35.0582L53.8634 35.4289C53.4851 35.7541 53.046 36.1378 52.7666 36.3864L52.7621 36.3821C52.6297 36.5008 52.4391 36.5087 52.29 36.4286C51.6264 35.8765 51.5074 35.6213 51.1448 35.0959C50.0478 36.2143 49.2708 36.5495 47.8504 36.5495C46.1683 36.5495 44.8596 35.5106 44.8596 33.4326C44.8596 31.809 45.7381 30.7052 46.9905 30.1639C48.0746 29.6875 49.5888 29.6011 50.7477 29.4711L50.7491 28.8417C50.7465 28.4632 50.715 28.0695 50.5047 27.7611C50.2615 27.3931 49.7944 27.2416 49.383 27.2416C48.6557 27.2416 48.0054 27.5977 47.8029 28.3347L47.777 28.4425C47.7426 28.6227 47.6111 28.801 47.43 28.81L45.4933 28.6004C45.3299 28.5634 45.1481 28.4321 45.1953 28.1823C45.6404 25.8306 47.7621 25.1201 49.6636 25.1201ZM23.4701 25.1201C24.4421 25.1201 25.7132 25.3798 26.4797 26.1159C27.4142 26.9902 27.3638 28.1444 27.3585 29.4059L27.3582 32.6735C27.3582 33.6107 27.7469 34.022 28.1122 34.5269C28.2396 34.7089 28.2684 34.9253 28.1057 35.0582L27.5049 35.5713C27.1696 35.861 26.8127 36.1733 26.5735 36.3864L26.5688 36.3821C26.4364 36.5008 26.2456 36.5087 26.0967 36.4286C25.4328 35.8765 25.3141 35.6213 24.9512 35.0959C23.8547 36.2143 23.0777 36.5495 21.6571 36.5495C19.9747 36.5495 18.6665 35.5106 18.6665 33.4326C18.6665 31.809 19.545 30.7052 20.7972 30.1639C21.8815 29.6875 23.3955 29.6011 24.5543 29.4711L24.5558 28.8417C24.5532 28.4632 24.5216 28.0695 24.3114 27.7611C24.0684 27.3931 23.6008 27.2416 23.1899 27.2416C22.4626 27.2416 21.8118 27.5977 21.6097 28.3347L21.5839 28.4425C21.5492 28.6227 21.418 28.801 21.2367 28.81L19.3002 28.6004C19.1366 28.5634 18.9546 28.4321 19.0019 28.1823C19.4468 25.8306 21.5687 25.1201 23.4701 25.1201ZM50.7476 31.8112L50.7477 31.0731L50.5249 31.0757C49.1496 31.1086 47.7757 31.4703 47.7757 33.0862C47.7757 33.9519 48.2242 34.5365 48.9905 34.5365C49.5514 34.5365 50.0559 34.1903 50.3737 33.6275C50.7139 33.027 50.7453 32.4593 50.7476 31.8112ZM24.5543 31.8112L24.5543 31.0731L24.3316 31.0757C22.9564 31.1086 21.5823 31.4703 21.5823 33.0862C21.5823 33.9519 22.0311 34.5365 22.7974 34.5365C23.3581 34.5365 23.8628 34.1903 24.1804 33.6275C24.5208 33.027 24.552 32.4593 24.5543 31.8112ZM69.3336 27.2088C67.9364 27.2088 67.8153 29.1458 67.8101 30.4205L67.8127 31.0929C67.8326 32.4645 67.995 34.5054 69.3155 34.5054C70.8211 34.5054 70.8934 32.3141 70.8934 30.9775C70.8934 30.1011 70.8573 29.0494 70.6034 28.2166C70.3854 27.4935 69.9501 27.2088 69.3336 27.2088Z" fill="#3B3A40"/>
</svg>
