<svg width="97" height="30" viewBox="0 0 97 30" fill="none" xmlns="http://www.w3.org/2000/svg">
<g clip-path="url(#clip0_217_338)">
<path fill-rule="evenodd" clip-rule="evenodd" d="M60.1402 23.461C54.5068 27.725 46.3415 30.0001 39.3114 30.0001C29.4539 30.0001 20.5797 26.256 13.8661 20.0289C13.3386 19.5393 13.8112 18.8719 14.4442 19.2533C21.6895 23.5823 30.6481 26.1867 39.9021 26.1867C46.1432 26.1867 53.0088 24.8607 59.3216 22.109C60.2753 21.693 61.0728 22.7503 60.1402 23.461" fill="#FF9900"/>
<path fill-rule="evenodd" clip-rule="evenodd" d="M62.4824 20.7093C61.7651 19.7646 57.7225 20.2629 55.908 20.4839C55.3552 20.5533 55.2708 20.0593 55.7688 19.7039C58.9885 17.3769 64.2716 18.0486 64.8877 18.8286C65.5038 19.6129 64.7274 25.0513 61.7018 27.647C61.2376 28.0457 60.7945 27.8333 61.0013 27.3047C61.6807 25.5627 63.204 21.6583 62.4824 20.7093" fill="#FF9900"/>
<path fill-rule="evenodd" clip-rule="evenodd" d="M56.0349 3.27617V1.01414C56.0349 0.671807 56.2881 0.442139 56.5919 0.442139H66.4535C66.77 0.442139 67.0232 0.676141 67.0232 1.01414V2.95116C67.019 3.27617 66.7531 3.70084 66.2805 4.37251L61.1703 11.8649C63.0693 11.8173 65.0737 12.1076 66.7953 13.1043C67.1835 13.3296 67.289 13.6589 67.3186 13.9839V16.3976C67.3186 16.727 66.9641 17.1126 66.5928 16.9133C63.5587 15.2796 59.5288 15.102 56.1741 16.9306C55.8323 17.1213 55.4736 16.74 55.4736 16.4106V14.1183C55.4736 13.7499 55.4778 13.1216 55.8365 12.5626L61.7569 3.84384H56.6045C56.288 3.84384 56.0349 3.61417 56.0349 3.27617" fill="black"/>
<path fill-rule="evenodd" clip-rule="evenodd" d="M20.0611 17.3898H17.0608C16.7739 17.3681 16.546 17.1471 16.5249 16.8654V1.05296C16.5249 0.73662 16.7823 0.485282 17.103 0.485282H19.9007C20.1919 0.498274 20.424 0.727951 20.4451 1.01395V3.08098H20.4999C21.23 1.08329 22.6014 0.151611 24.4497 0.151611C26.3275 0.151611 27.5006 1.08329 28.3445 3.08098C29.0703 1.08329 30.7203 0.151611 32.4884 0.151611C33.7459 0.151611 35.1215 0.684617 35.9612 1.88063C36.9107 3.21098 36.7166 5.14366 36.7166 6.83801L36.7124 16.8178C36.7124 17.1341 36.455 17.3898 36.1343 17.3898H33.1382C32.8386 17.3681 32.5981 17.1211 32.5981 16.8178V8.43703C32.5981 7.76969 32.6571 6.10567 32.5137 5.473C32.29 4.41132 31.6191 4.11232 30.7498 4.11232C30.024 4.11232 29.2644 4.61066 28.9564 5.408C28.6484 6.20534 28.6779 7.54002 28.6779 8.43703V16.8178C28.6779 17.1341 28.4205 17.3898 28.0998 17.3898H25.1037C24.7999 17.3681 24.5636 17.1211 24.5636 16.8178L24.5594 8.43703C24.5594 6.67334 24.8421 4.07765 22.7111 4.07765C20.5548 4.07765 20.6392 6.60834 20.6392 8.43703V16.8178C20.6392 17.1341 20.3818 17.3898 20.0611 17.3898" fill="black"/>
<path fill-rule="evenodd" clip-rule="evenodd" d="M75.5129 0.151611C79.9648 0.151611 82.3743 4.07765 82.3743 9.06971C82.3743 13.8928 79.7116 17.7191 75.5129 17.7191C71.1412 17.7191 68.7612 13.7931 68.7612 8.9007C68.7612 3.97798 71.1707 0.151611 75.5129 0.151611V0.151611ZM75.5382 3.37998C73.327 3.37998 73.1878 6.47401 73.1878 8.40236C73.1878 10.3351 73.1583 14.4604 75.5129 14.4604C77.838 14.4604 77.9477 11.1324 77.9477 9.10437C77.9477 7.76969 77.8929 6.17501 77.5004 4.90966C77.1628 3.80899 76.4919 3.37998 75.5382 3.37998" fill="black"/>
<path fill-rule="evenodd" clip-rule="evenodd" d="M88.1472 17.3898H85.1596C84.86 17.3681 84.6194 17.1211 84.6194 16.8178L84.6152 1.00095C84.6406 0.710617 84.8895 0.485282 85.1933 0.485282H87.9742C88.2358 0.498274 88.451 0.680284 88.5101 0.927287V3.34531H88.565C89.4047 1.18296 90.582 0.151611 92.6539 0.151611C94 0.151611 95.3124 0.64995 96.1563 2.01496C96.9412 3.28031 96.9412 5.408 96.9412 6.93768V16.8914C96.9075 17.1688 96.6585 17.3898 96.3631 17.3898H93.3544C93.0801 17.3681 92.8523 17.1601 92.8227 16.8914V8.30269C92.8227 6.57368 93.0168 4.04298 90.9449 4.04298C90.2149 4.04298 89.5439 4.54566 89.2106 5.30833C88.7886 6.27467 88.7337 7.23668 88.7337 8.30269V16.8178C88.7295 17.1341 88.4679 17.3898 88.1472 17.3898" fill="black"/>
<path fill-rule="evenodd" clip-rule="evenodd" d="M48.173 9.83677C48.173 11.0371 48.2025 12.0381 47.6117 13.1041C47.1349 13.9708 46.3754 14.5038 45.5356 14.5038C44.3836 14.5038 43.7084 13.6025 43.7084 12.2721C43.7084 9.6461 45.9998 9.16943 48.173 9.16943V9.83677V9.83677ZM51.1986 17.3465C51.0002 17.5285 50.7133 17.5415 50.4896 17.4202C49.4938 16.5708 49.3123 16.1765 48.768 15.3662C47.1223 17.0908 45.9534 17.6065 43.8224 17.6065C41.2947 17.6065 39.3325 16.0075 39.3325 12.8051C39.3325 10.3048 40.6491 8.60176 42.5311 7.76975C44.16 7.03307 46.4344 6.90307 48.173 6.69941V6.30073C48.173 5.56839 48.2278 4.70171 47.8059 4.06904C47.443 3.50137 46.7425 3.26737 46.1222 3.26737C44.9786 3.26737 43.9616 3.86971 43.7127 5.11772C43.662 5.39506 43.4637 5.66806 43.1894 5.68106L40.282 5.36039C40.0372 5.30406 39.7629 5.10039 39.8347 4.71472C40.5014 1.09201 43.6916 0 46.5441 0C48.0042 0 49.9115 0.398672 51.0635 1.53402C52.5236 2.9337 52.3843 4.80138 52.3843 6.83374V11.6351C52.3843 13.0781 52.9667 13.7108 53.5152 14.4908C53.7051 14.7682 53.7473 15.1018 53.5026 15.3098C52.8907 15.8342 51.802 16.8092 51.2028 17.3552L51.1986 17.3465" fill="black"/>
<path fill-rule="evenodd" clip-rule="evenodd" d="M8.84046 9.83701C8.84046 11.0374 8.86999 12.0384 8.27922 13.1044C7.80239 13.9711 7.04704 14.5041 6.20309 14.5041C5.05108 14.5041 4.38014 13.6027 4.38014 12.2724C4.38014 9.64634 6.67148 9.16967 8.84046 9.16967V9.83701V9.83701ZM11.866 17.3468C11.6677 17.5288 11.3808 17.5418 11.1571 17.4204C10.1612 16.5711 9.98401 16.1767 9.43544 15.3664C7.78973 17.0911 6.62507 17.6068 4.48985 17.6068C1.96642 17.6068 0 16.0077 0 12.8054C0 10.305 1.32079 8.602 3.1986 7.76999C4.82744 7.03332 7.1019 6.90332 8.84046 6.69965V6.30098C8.84046 5.56863 8.89531 4.70196 8.47755 4.06929C8.11043 3.50161 7.40995 3.26761 6.79386 3.26761C5.6503 3.26761 4.62911 3.86995 4.38014 5.11796C4.3295 5.3953 4.13117 5.6683 3.86111 5.6813L0.949452 5.36063C0.704704 5.3043 0.434637 5.10063 0.502154 4.71496C1.1731 1.09226 4.35904 0.000244141 7.21162 0.000244141C8.67166 0.000244141 10.579 0.398916 11.731 1.53426C13.1911 2.93394 13.0518 4.80163 13.0518 6.83398V11.6354C13.0518 13.0784 13.6341 13.711 14.1827 14.4911C14.3768 14.7684 14.419 15.1021 14.1743 15.3101C13.5624 15.8344 12.4737 16.8094 11.8745 17.3554L11.866 17.3467" fill="black"/>
</g>
<defs>
<clipPath id="clip0_217_338">
<rect width="96.9412" height="30" fill="white"/>
</clipPath>
</defs>
</svg>
