<svg width="158" height="31" viewBox="0 0 158 31" fill="none" xmlns="http://www.w3.org/2000/svg">
<path fill-rule="evenodd" clip-rule="evenodd" d="M11.7749 18.0031C12.0109 18.1306 12.3133 18.1179 12.5231 17.9291L12.5306 17.9359C13.1624 17.3704 14.3121 16.3664 14.9586 15.8214C15.2165 15.6098 15.1709 15.2653 14.9691 14.9756C14.9074 14.8899 14.8452 14.806 14.7835 14.7225C14.2658 14.0227 13.7741 13.358 13.7741 12.0251V7.06473C13.7741 6.89399 13.7751 6.7244 13.776 6.55611C13.787 4.65225 13.797 2.91534 12.3819 1.58543C11.1672 0.413511 9.15291 0 7.6124 0C4.59926 0 1.23665 1.13111 0.531582 4.8751C0.456514 5.27272 0.744933 5.48183 1.00426 5.54033L4.07307 5.87439C4.36041 5.85995 4.56837 5.57609 4.62333 5.28934C4.8866 3.99969 5.9609 3.37743 7.16845 3.37743C7.81964 3.37743 8.56062 3.61868 8.94566 4.20445C9.34358 4.79086 9.3373 5.57077 9.33165 6.27177C9.33099 6.35348 9.33034 6.43412 9.33034 6.51326V6.92677C9.04543 6.95888 8.74697 6.98932 8.43959 7.02067C6.76603 7.19135 4.8283 7.38898 3.37662 8.02971C1.39217 8.8914 0 10.6487 0 13.2334C0 16.5415 2.07317 18.1956 4.73934 18.1956C6.99066 18.1956 8.22192 17.6615 9.95962 15.8814C10.0476 16.0094 10.1266 16.1273 10.2009 16.2384C10.6125 16.8532 10.8839 17.2586 11.7749 18.0031ZM9.33047 10.3289C9.33041 10.2751 9.33035 10.2209 9.33035 10.1662V9.47718C7.04024 9.47718 4.62083 9.9705 4.62083 12.682C4.62083 14.0601 5.332 14.9908 6.54637 14.9908C7.43498 14.9908 8.23486 14.4397 8.73807 13.5437C9.33277 12.4893 9.33172 11.498 9.33047 10.3289ZM54.0328 17.9291C53.8231 18.1179 53.521 18.1306 53.2847 18.0031C52.3932 17.258 52.1219 16.8526 51.71 16.2369C51.6359 16.1263 51.5573 16.0088 51.4697 15.8814C49.7313 17.6615 48.5001 18.1956 46.2491 18.1956C43.5833 18.1956 41.5094 16.5415 41.5094 13.2334C41.5094 10.6487 42.9016 8.8914 44.8864 8.02971C46.3378 7.38897 48.2758 7.19134 49.9497 7.02065C50.2571 6.98931 50.5555 6.95887 50.8405 6.92677V6.51326C50.8405 6.43449 50.8411 6.35424 50.8418 6.27293C50.8473 5.57162 50.8536 4.79118 50.4554 4.20445C50.07 3.61868 49.3298 3.37743 48.6779 3.37743C47.4703 3.37743 46.3967 3.99969 46.1327 5.28934C46.0781 5.57609 45.8698 5.85995 45.5828 5.87439L42.5137 5.54033C42.2547 5.48183 41.9666 5.27272 42.0413 4.8751C42.7468 1.13111 46.109 0 49.1225 0C50.6627 0 52.6769 0.413511 53.8913 1.58543C55.3065 2.91513 55.2964 4.65169 55.2854 6.55518V6.55522C55.2845 6.7238 55.2835 6.89369 55.2835 7.06473V12.0251C55.2835 13.357 55.7751 14.0217 56.2922 14.721L56.2924 14.7212C56.3544 14.8051 56.4168 14.8895 56.4788 14.9756C56.681 15.2653 56.7267 15.6098 56.4684 15.8214C55.8215 16.3664 54.6725 17.3704 54.04 17.9359L54.0328 17.9291ZM50.8404 10.1662L50.8405 10.3272V10.3272C50.8417 11.497 50.8428 12.4888 50.2478 13.5437C49.7442 14.4397 48.9447 14.9908 48.0557 14.9908C46.8413 14.9908 46.1305 14.0601 46.1305 12.682C46.1305 9.9705 48.5496 9.47718 50.8404 9.47718V10.1662ZM137.25 17.3866C137.25 17.7066 137.512 17.9641 137.841 17.9742H139.226C139.543 17.9536 139.794 17.7005 139.794 17.3873L139.795 7.96831C139.795 6.52409 139.943 5.11418 140.711 3.97946C141.308 3.08563 142.317 2.31928 143.314 2.2633C144.275 2.31422 145.193 2.95562 145.703 3.94479C146.147 4.80468 146.206 5.9394 146.206 6.90221L146.212 17.3866C146.212 17.7066 146.475 17.9641 146.804 17.9742H148.187C148.477 17.9551 148.711 17.7434 148.751 17.4726V8.55265L148.751 8.38986C148.75 6.81777 148.749 5.58319 149.578 4.21999C150.234 3.12499 151.248 2.31856 152.354 2.2633C153.344 2.3135 154.264 2.99137 154.747 4.08239C155.173 5.04253 155.168 6.14211 155.162 7.20516V7.20649V7.20782V7.20914C155.162 7.32512 155.161 7.44065 155.161 7.55552V17.4668C155.201 17.7492 155.447 17.9648 155.746 17.9742H157.137C157.455 17.9536 157.706 17.7005 157.706 17.3873L157.706 7.55552L157.706 7.37638C157.707 5.79871 157.709 3.96077 156.997 2.56955C156.228 1.05671 154.75 0.0595911 153.214 0.0595911L153.087 0.0613969L152.974 0.0595911C150.8 0.0595911 149.151 1.61938 148.277 3.81623C147.715 1.59121 146.204 0.0595911 144.14 0.0595911L144.022 0.0613969L143.901 0.0595911C141.954 0.0595911 140.414 1.53884 139.588 3.42691V1.04407C139.562 0.741072 139.299 0.505967 138.979 0.505967L137.817 0.506328C137.514 0.52583 137.273 0.755518 137.25 1.04371V17.3866ZM18.0048 17.9699H21.171C21.5086 17.9699 21.7823 17.708 21.7819 17.3816L21.783 8.72022L21.7828 8.51474C21.7797 6.64538 21.7757 4.21565 23.9704 4.21565C25.9889 4.21565 25.9549 6.38146 25.9272 8.14299V8.14313V8.14328V8.14342V8.14357V8.14371V8.14385V8.14399V8.14412C25.9241 8.34252 25.9211 8.53577 25.9211 8.72022L25.9243 17.383C25.9243 17.6961 26.175 17.9493 26.4929 17.9699H29.6554C29.9927 17.9699 30.2664 17.708 30.2664 17.3816V8.72022C30.2664 8.65035 30.2662 8.57796 30.2661 8.50346C30.2639 7.58787 30.261 6.35438 30.5616 5.59125C30.8867 4.76567 31.6851 4.24996 32.4534 4.24996C33.3697 4.24996 34.0791 4.55946 34.3154 5.65987C34.435 6.18771 34.4192 7.41148 34.4088 8.22473V8.22487V8.22502V8.22514V8.22527V8.2254V8.22553V8.22565V8.22577C34.4063 8.41865 34.4041 8.5884 34.4041 8.72022L34.4048 17.383C34.4048 17.6961 34.6555 17.9493 34.9734 17.9699H38.1363C38.4732 17.9699 38.7469 17.708 38.7469 17.3816L38.7494 7.06978C38.7494 6.81691 38.7537 6.55903 38.7581 6.29871L38.7581 6.29828C38.7838 4.75342 38.811 3.12304 37.951 1.94621C37.0642 0.708205 35.616 0.158181 34.2859 0.158181C32.4236 0.158181 30.6798 1.12099 29.9115 3.18422C29.0247 1.12099 27.783 0.158181 25.8029 0.158181C23.8522 0.158181 22.404 1.12099 21.6354 3.18422H21.5761V1.05057C21.5567 0.752626 21.3089 0.517881 21.0004 0.501991L18.0515 0.502713C17.7139 0.502713 17.4405 0.764183 17.4405 1.09102L17.4384 17.4318C17.4625 17.7221 17.7035 17.95 18.0048 17.9699ZM59.1374 3.3861V1.05129C59.1388 0.695926 59.4053 0.459014 59.7261 0.459737L70.1343 0.458653C70.4669 0.458653 70.7341 0.702065 70.7348 1.0484L70.7341 3.05095C70.7316 3.38682 70.4504 3.82525 69.9504 4.52082L64.5591 12.2605C66.5605 12.2136 68.6775 12.5144 70.496 13.5422C70.9058 13.7737 71.0157 14.1172 71.048 14.4538V16.9449C71.048 17.2884 70.6745 17.6856 70.2819 17.4791C67.078 15.7918 62.8268 15.6069 59.2846 17.4993C58.9226 17.6932 58.5436 17.3018 58.5436 16.9583V14.5899C58.5436 14.2111 58.5508 13.5628 58.9308 12.985L65.1773 3.97476L59.7386 3.97404C59.4064 3.97404 59.1395 3.73569 59.1374 3.3861ZM59.013 21.1694C60.934 20.9384 65.1852 20.4271 65.9446 21.4044C66.7048 22.3827 65.101 26.4114 64.3829 28.215L64.3814 28.2188C64.1641 28.7641 64.6303 28.9841 65.121 28.5713C68.3101 25.8891 69.134 20.2686 68.4807 19.4567C67.8327 18.6528 62.2576 17.9587 58.8551 20.3617C58.3318 20.7312 58.422 21.2408 59.0024 21.1707L59.013 21.1694ZM41.4878 31C48.9084 31 57.5265 28.654 63.4705 24.2433C64.4543 23.5135 63.6117 22.4185 62.6067 22.8475C55.9429 25.6894 48.7005 27.0642 42.1121 27.0642C32.3453 27.0642 22.8893 24.3697 15.2428 19.8955C14.574 19.504 14.0776 20.1945 14.634 20.6994C21.7219 27.1347 31.0871 31 41.4878 31ZM79.724 3.49336C77.3886 3.49336 77.241 6.6913 77.241 8.68555L77.241 8.75491C77.2407 10.7772 77.24 14.9442 79.6946 14.9442C82.1481 14.9442 82.2659 11.5054 82.2659 9.40784C82.2659 8.0326 82.207 6.3818 81.7932 5.07518C81.438 3.94046 80.7286 3.49336 79.724 3.49336ZM79.6945 0.158181C84.3944 0.158181 86.9359 4.21565 86.9359 9.37353C86.9359 14.3591 84.1286 18.314 79.6945 18.314C75.0834 18.314 72.571 14.2562 72.571 9.20162C72.571 4.11236 75.1129 0.158181 79.6945 0.158181ZM89.8761 17.9699H93.0307C93.368 17.9699 93.6417 17.708 93.6474 17.3816V8.58262C93.6474 7.48221 93.7071 6.48509 94.1503 5.48796C94.5044 4.69706 95.2138 4.18134 95.9824 4.18134C97.9999 4.18134 97.9806 6.40439 97.9655 8.15264C97.9642 8.29987 97.9629 8.44374 97.9629 8.58262V17.4549C97.9974 17.7344 98.2338 17.9507 98.5268 17.9699H101.701C102.014 17.9699 102.272 17.7449 102.308 17.4549V7.17271C102.308 5.59125 102.308 3.39043 101.48 2.08381C100.594 0.673896 99.2039 0.158181 97.7855 0.158181C95.5981 0.158181 94.3572 1.22392 93.4704 3.45905H93.4107V0.959562C93.3525 0.706038 93.1245 0.516076 92.8483 0.501991L89.9109 0.502713C89.592 0.502713 89.3294 0.737458 89.3028 1.03613L89.3079 17.383C89.3079 17.6961 89.5589 17.9493 89.8761 17.9699ZM104.293 16.6734C104.293 15.851 104.991 15.1844 105.852 15.1844C106.713 15.1844 107.41 15.851 107.41 16.6734C107.41 17.4953 106.713 18.1616 105.852 18.1616C104.991 18.1616 104.293 17.4953 104.293 16.6734ZM128.63 16.0807C130.108 16.0323 131.274 15.1118 131.964 13.5729C132.584 12.1977 132.703 10.6159 132.703 9.10303C132.703 7.45223 132.525 5.73318 131.757 4.32327C131.069 3.08996 129.882 2.30916 128.625 2.26221C127.225 2.31386 125.978 3.26511 125.346 4.7357C124.785 6.00801 124.607 7.69312 124.607 9.10303C124.607 10.6845 124.814 12.5068 125.465 13.8824C126.096 15.1854 127.314 16.0341 128.63 16.0807ZM128.299 18.3184C123.806 18.3184 121.797 13.7105 121.797 9.10303C121.797 4.25429 124.161 0.0595911 128.683 0.0595911L128.8 0.0606746L128.922 0.0595911C133.327 0.0595911 135.514 4.52949 135.514 9.13698C135.514 14.02 133.09 18.3184 128.538 18.3184L128.422 18.3169L128.299 18.3184ZM117.774 12.2168C117.335 14.3237 116.276 15.9489 114.259 16.0125C111.224 15.9117 110.504 11.8528 110.504 9.06836C110.504 6.18389 111.367 2.42834 114.402 2.33083C116.308 2.39403 117.451 3.9856 117.788 5.98743C117.832 6.26912 118.024 6.52301 118.314 6.56454L119.712 6.58115C120.003 6.54721 120.252 6.31427 120.252 6.04521C119.772 2.4594 117.561 0.0595911 114.464 0.0595911L114.343 0.0606746L114.225 0.0595911C109.762 0.0595911 107.811 4.70139 107.811 9.24027C107.811 13.8138 109.732 18.3184 114.196 18.3184L114.311 18.3169L114.435 18.3184C117.501 18.3184 119.653 15.8835 120.269 12.2999C120.292 12.0048 120.003 11.7629 119.689 11.7463L118.355 11.752C118.061 11.752 117.86 11.9543 117.774 12.2168Z" fill="#969696"/>
</svg>
