<svg width="33" height="33" viewBox="0 0 33 33" fill="none" xmlns="http://www.w3.org/2000/svg">
<g id="Icons/Arrow_Forward">
<g id="arrow-back">
<rect id="Rectangle" opacity="0.01" x="0.5" y="32.5" width="32" height="32" transform="rotate(-90 0.5 32.5)" fill="#4366E9"/>
<path id="Path" d="M7.16651 17.8333L22.9798 17.8333L18.1398 23.6466C17.6686 24.2136 17.7462 25.0553 18.3132 25.5266C18.8802 25.9979 19.7219 25.9203 20.1932 25.3533L26.8598 17.3533C26.9047 17.2896 26.9448 17.2228 26.9798 17.1533C26.9798 17.0866 26.9798 17.0466 27.0732 16.9799C27.1336 16.827 27.1652 16.6643 27.1665 16.4999C27.1652 16.3355 27.1336 16.1728 27.0732 16.0199C27.0732 15.9533 27.0732 15.9133 26.9798 15.8466C26.9448 15.7771 26.9047 15.7102 26.8598 15.6466L20.1932 7.64659C19.9394 7.34187 19.5631 7.16595 19.1665 7.16659C18.855 7.16598 18.5531 7.27448 18.3132 7.47326C18.0405 7.69932 17.869 8.02459 17.8365 8.3773C17.8039 8.73 17.9131 9.08115 18.1398 9.35326L22.9798 15.1666L7.16651 15.1666C6.43013 15.1666 5.83317 15.7635 5.83317 16.4999C5.83317 17.2363 6.43013 17.8333 7.16651 17.8333Z" fill="#4366E9"/>
</g>
</g>
</svg>
