<svg width="33" height="33" viewBox="0 0 33 33" fill="none" xmlns="http://www.w3.org/2000/svg">
<g id="Icons/Arrow_Forward">
<g id="arrow-back">
<rect id="Rectangle" opacity="0.01" x="32.5" y="0.5" width="32" height="32" transform="rotate(90 32.5 0.5)" fill="#A1B3F4"/>
<path id="Path" d="M25.8335 15.1667L10.0202 15.1667L14.8602 9.35341C15.3314 8.78639 15.2538 7.94469 14.6868 7.47341C14.1198 7.00212 13.2781 7.07973 12.8068 7.64674L6.14016 15.6467C6.09531 15.7104 6.0552 15.7772 6.02016 15.8467C6.02016 15.9134 6.02016 15.9534 5.92683 16.0201C5.86639 16.173 5.83475 16.3357 5.8335 16.5001C5.83475 16.6645 5.86639 16.8272 5.92683 16.9801C5.92683 17.0467 5.92683 17.0867 6.02016 17.1534C6.0552 17.2229 6.09531 17.2898 6.14016 17.3534L12.8068 25.3534C13.0606 25.6581 13.4369 25.8341 13.8335 25.8334C14.145 25.834 14.4469 25.7255 14.6868 25.5267C14.9595 25.3007 15.131 24.9754 15.1635 24.6227C15.1961 24.27 15.0869 23.9189 14.8602 23.6467L10.0202 17.8334L25.8335 17.8334C26.5699 17.8334 27.1668 17.2365 27.1668 16.5001C27.1668 15.7637 26.5699 15.1667 25.8335 15.1667Z" fill="#A1B3F4"/>
</g>
</g>
</svg>
