<svg width="67" height="65" viewBox="0 0 67 65" fill="none" xmlns="http://www.w3.org/2000/svg">
<path d="M65.4903 32.5C65.4903 49.8827 51.1787 64 33.4922 64C15.8058 64 1.49414 49.8827 1.49414 32.5C1.49414 15.1173 15.8058 1 33.4922 1C51.1787 1 65.4903 15.1173 65.4903 32.5Z" stroke="#2E4FD7" stroke-width="2" stroke-linejoin="round"/>
<rect opacity="0.01" x="51.2605" y="50" width="35.5364" height="35" transform="rotate(-180 51.2605 50)" fill="#2E4FD7"/>
<path d="M27.5695 38.6396L27.5695 26.3604C27.568 25.371 28.1441 24.4689 29.0502 24.0417C30.1249 23.5417 31.3949 23.6889 32.3225 24.4209L39.874 30.5604C40.4451 31.048 40.7732 31.7557 40.7732 32.5C40.7732 33.2444 40.4451 33.9521 39.874 34.4396L32.3225 40.5792C31.3949 41.3112 30.1249 41.4583 29.0502 40.9584C28.1441 40.5311 27.568 39.629 27.5695 38.6396Z" fill="#2E4FD7"/>
</svg>
