<svg width="114" height="70" viewBox="0 0 114 70" fill="none" xmlns="http://www.w3.org/2000/svg">
<path fill-rule="evenodd" clip-rule="evenodd" d="M16.4818 29.1991C16.6334 29.1238 16.8153 29.184 16.8911 29.3346L22.1365 39.7682C22.1517 39.8134 22.1668 39.8736 22.1668 39.9188C22.1668 40.0814 22.044 40.2196 21.8869 40.2456L21.8333 40.25H18.0281C17.9242 40.25 17.8313 40.1947 17.7688 40.1125L17.7401 40.0694L15.9057 36.4259C14.815 34.2156 14.9423 31.6211 16.218 29.5278L16.3302 29.3497C16.3605 29.2894 16.406 29.2443 16.4818 29.1991ZM65.2131 30.9215L65.3782 30.9197C66.3324 30.8902 67.2738 31.0798 68.1547 31.476L68.3569 31.571V33.7953C67.3888 33.3187 66.3612 32.985 65.3186 32.985C64.4548 32.985 63.9931 33.2233 63.9931 33.7794C63.9931 34.1925 64.2969 34.5024 65.4765 34.7943L65.6165 34.8279C67.9254 35.3546 68.7759 36.1229 68.817 37.7219L68.8183 37.8374L61.8782 33.7794L61.8784 33.8054L61.8335 33.7794C61.8335 32.0424 62.9831 30.9715 65.2131 30.9215ZM61.8784 33.8054L61.8793 33.8823C61.909 35.248 62.5477 36.3338 64.9016 36.8298L65.047 36.8624C66.3665 37.1653 66.6441 37.4192 66.6441 37.9101C66.6441 38.4026 66.3463 38.7362 65.3335 38.7362C64.1122 38.7203 62.9058 38.3708 61.8335 37.7194V40.0231L61.9222 40.0691C62.6409 40.438 63.588 40.8334 65.3037 40.8334L65.473 40.8315C67.8662 40.7782 68.8335 39.5855 68.8335 37.8465L68.8183 37.8374L68.8186 37.8465L61.8784 33.8054ZM74.2815 30.9214L74.4555 30.9197C75.4849 30.8902 76.5004 31.0798 77.4507 31.476L77.6688 31.571V33.7953C76.6245 33.3187 75.5159 32.985 74.3912 32.985C73.4594 32.985 72.9613 33.2233 72.9613 33.7794C72.9613 34.193 73.29 34.5033 74.5668 34.7955L74.7126 34.8279C77.2671 35.3681 78.1668 36.1625 78.1668 37.8465C78.1668 39.6259 77.0904 40.8175 74.327 40.8334C72.4731 40.8334 71.4512 40.4368 70.6754 40.0673L70.5835 40.0231V37.7194C71.7403 38.3708 73.0417 38.7203 74.3591 38.7362C75.4516 38.7362 75.7729 38.4026 75.7729 37.9101C75.7729 37.4186 75.4727 37.1647 74.0449 36.8613L73.8932 36.8298C71.2904 36.3214 70.6317 35.1934 70.6317 33.7794C70.6317 32.0414 71.8732 30.9703 74.2815 30.9214ZM14.2761 34.5352C14.1732 34.4053 13.982 34.3764 13.8497 34.4774C13.8056 34.5063 13.7762 34.5496 13.7615 34.5929L11.1148 39.8026L11.0951 39.8564C11.0556 40.0017 11.1181 40.157 11.2618 40.2212C11.3059 40.2356 11.3501 40.25 11.4089 40.25H15.0995L15.1497 40.2465C15.2493 40.2323 15.3411 40.1758 15.3789 40.0768C16.1582 38.4605 15.673 36.0072 14.2761 34.5352ZM100.497 35.19L98.2233 30.9167H95.0835V40.25H97.0788V33.1382L97.914 35.0203L100.744 40.25H103.25V30.9167H101.255V36.9486L100.497 35.19ZM82.2502 30.9167V40.25H79.9168V30.9167H82.2502ZM47.1422 38.2291V30.9167H44.9168V40.25H49.4616L50.1668 38.2291H47.1422ZM43.1668 30.9167V32.9376H40.6582V40.25H38.5252V32.9376H36.1668V30.9167H43.1668ZM36.1668 40.25L32.9278 30.9167H30.0725L26.8335 40.25H29.305L29.7655 38.6765L29.9792 38.7361C31.0509 39.0145 32.1698 38.9946 33.2348 38.6765L33.6953 40.25H36.1668ZM56.8445 30.9167L60.0835 40.25H57.612L57.1515 38.6765C56.0865 38.9946 54.9676 39.0145 53.8959 38.7361L53.6822 38.6765L53.2217 40.25H50.7502L53.9892 30.9167H56.8445ZM93.3335 40.25L90.0945 30.9167H87.2392L84.0002 40.25H86.4716L86.9322 38.6765L87.1459 38.7361C88.2176 39.0145 89.3365 38.9946 90.4015 38.6765L90.862 40.25H93.3335ZM30.3028 36.8252L31.5002 32.7525L32.6975 36.8252L32.498 36.8806C32.1654 36.9628 31.8328 36.9949 31.5002 36.9949C31.101 36.9949 30.7019 36.9332 30.3028 36.8252ZM55.4168 32.7525L54.2195 36.8252C54.6186 36.9332 55.0177 36.9949 55.4168 36.9949C55.7494 36.9949 56.082 36.9628 56.4146 36.8806L56.6142 36.8252L55.4168 32.7525ZM87.4695 36.8252L88.6668 32.7525L89.8642 36.8252L89.6646 36.8806C89.332 36.9628 88.9994 36.9949 88.6668 36.9949C88.2677 36.9949 87.8686 36.9332 87.4695 36.8252Z" fill="#3B3A40"/>
</svg>
