<svg width="96" height="30" viewBox="0 0 96 30" fill="none" xmlns="http://www.w3.org/2000/svg">
<g clip-path="url(#clip0_217_349)">
<path d="M70.9307 28.2206L78.7797 19.5614L70.9307 10.9009H79.2122L83.0997 15.1076L86.8431 10.9009H94.8357L87.024 19.5256L94.9429 28.2206H86.6274L82.7752 23.9794L78.9593 28.2206H70.9307Z" fill="#FF6600"/>
<path d="M70.9308 7.01853H62.0411V10.901H70.9308V16.7522H62.0411V22.1229H70.9308V28.2208H55.5073V0.9375H70.9308V7.01853Z" fill="#FF6600"/>
<path d="M49.0012 0.9375V12.1031H48.9295C47.4891 10.4775 45.6894 9.91259 43.6013 9.91259C39.3238 9.91259 36.1017 12.7677 34.9707 16.5425C33.6808 12.3832 30.3544 9.83464 25.4218 9.83464C21.4161 9.83464 18.2529 11.6001 16.6022 14.4769V10.9014H8.32228V7.01933H17.358V0.9375H0.941406V28.2212H8.32228V16.7522H15.679C15.4597 17.5947 15.3426 18.4967 15.3426 19.4486C15.3426 25.1399 19.7707 29.1332 25.4218 29.1332C30.1739 29.1332 33.3056 26.9427 34.9621 22.9489H28.637C27.7813 24.1487 27.1323 24.505 25.4218 24.505C23.4384 24.505 21.7283 22.8059 21.7283 20.7917H34.6077C35.1663 25.3122 38.7526 29.2108 43.6741 29.2108C45.7971 29.2108 47.7408 28.1854 48.9295 26.4541H49.0012V28.2204H55.5075V0.9375H49.0012ZM21.9337 16.8337C22.3442 15.1008 23.713 13.9682 25.4218 13.9682C27.3029 13.9682 28.6022 15.0659 28.9439 16.8337C29.0879 16.8337 21.9337 16.8337 21.9337 16.8337ZM45.0527 24.0667C42.6543 24.0667 41.164 21.8725 41.164 19.5816C41.164 17.1327 42.4604 14.7778 45.0527 14.7778C47.7408 14.7778 48.8117 17.1327 48.8117 19.5816C48.8113 21.9039 47.6765 24.0667 45.0527 24.0667Z" fill="#652C8F"/>
</g>
<defs>
<clipPath id="clip0_217_349">
<rect width="94.1176" height="28.125" fill="white" transform="translate(0.941406 0.9375)"/>
</clipPath>
</defs>
</svg>
