<svg width="16" height="16" viewBox="0 0 16 16" fill="none" xmlns="http://www.w3.org/2000/svg">
<path opacity="0.01" d="M0 0H16V16H0" fill="#2E4FD7"/>
<path d="M11.6664 9.33348C11.2678 10.7202 10.0942 11.7452 8.66643 11.9535C7.56185 12.1137 6.43969 11.8167 5.559 11.1311C4.67831 10.4454 4.11524 9.4303 3.99976 8.32015C3.91026 7.20502 4.29183 6.10337 5.05189 5.2825C5.81196 4.46163 6.88105 3.99656 7.99976 4.00015C8.51826 4.00088 9.03187 4.10043 9.51309 4.29348C9.67013 4.36398 9.85502 4.30332 9.93976 4.15348L10.8998 2.38682C10.9415 2.30463 10.9488 2.20921 10.92 2.12164C10.8912 2.03407 10.8288 1.96156 10.7464 1.92015C8.65075 0.971323 6.21397 1.16999 4.29966 2.44574C2.38535 3.7215 1.26403 5.89406 1.33309 8.19348C1.46924 11.675 4.23397 14.4801 7.71309 14.6668C11.3739 14.8292 14.4795 12.0064 14.6664 8.34682V7.01348C14.6629 6.83088 14.5157 6.6837 14.3331 6.68015H8.33309C8.149 6.68015 7.99976 6.82939 7.99976 7.01348V9.01348C7.99976 9.19758 8.149 9.34682 8.33309 9.34682H11.6664" fill="#2E4FD7"/>
</svg>
