<svg width="103" height="70" viewBox="0 0 103 70" fill="none" xmlns="http://www.w3.org/2000/svg">
<path d="M31.1967 31.182H21.9438V33.9276H28.5066C28.1814 37.7707 24.9791 39.4203 21.9549 39.4203C20.9968 39.4245 20.0475 39.2378 19.1624 38.8711C18.2773 38.5044 17.4741 37.9651 16.7997 37.2846C16.1253 36.604 15.5932 35.796 15.2345 34.9076C14.8759 34.0192 14.6978 33.0683 14.7106 32.1103C14.7106 27.9538 17.9285 24.7537 21.9637 24.7537C25.0766 24.7537 26.911 26.7381 26.911 26.7381L28.8325 24.7471C28.8325 24.7471 26.3641 22 21.8632 22C16.1318 22 11.6982 26.8371 11.6982 32.0615C11.6982 37.1809 15.8687 42.1733 22.0081 42.1733C27.4083 42.1733 31.3615 38.4735 31.3615 33.0031C31.3615 31.8487 31.1938 31.182 31.1938 31.182H31.1967Z" fill="#3B3A40"/>
<path d="M38.7768 29.1932C34.9795 29.1932 32.2583 32.162 32.2583 35.623C32.2583 39.1365 34.8967 42.16 38.8211 42.16C42.373 42.16 45.2827 39.4454 45.2827 35.6984C45.2827 31.4119 41.8978 29.1925 38.7768 29.1925V29.1932ZM38.8137 31.74C40.6806 31.74 42.4499 33.2499 42.4499 35.6822C42.4499 38.0619 40.688 39.6154 38.8049 39.6154C36.7355 39.6154 35.1096 37.9584 35.1096 35.6629C35.1096 33.4162 36.7207 31.74 38.8196 31.74H38.8137Z" fill="#3B3A40"/>
<path d="M52.953 29.1932C49.1558 29.1932 46.4346 32.162 46.4346 35.623C46.4346 39.1365 49.073 42.16 52.9974 42.16C56.5493 42.16 59.4589 39.4454 59.4589 35.6984C59.4589 31.4119 56.0741 29.1925 52.953 29.1925V29.1932ZM52.99 31.74C54.8568 31.74 56.6261 33.2499 56.6261 35.6822C56.6261 38.0619 54.8642 39.6154 52.9811 39.6154C50.9118 39.6154 49.2858 37.9584 49.2858 35.6629C49.2858 33.4162 50.897 31.74 52.9959 31.74H52.99Z" fill="#3B3A40"/>
<path d="M66.8566 29.2006C63.3713 29.2006 60.6323 32.2529 60.6323 35.6792C60.6323 39.5814 63.808 42.1696 66.796 42.1696C68.6437 42.1696 69.6266 41.4357 70.3435 40.5939V41.8725C70.3435 44.1096 68.9851 45.4495 66.935 45.4495C64.9543 45.4495 63.961 43.9766 63.6092 43.1414L61.1171 44.1761C62.0011 46.0459 63.7807 47.9948 66.9557 47.9948C70.4292 47.9948 73.0618 45.8124 73.0618 41.2347V29.5901H70.3539V30.6883C69.5187 29.7867 68.3747 29.2006 66.8581 29.2006H66.8566ZM67.1079 31.743C68.8166 31.743 70.5711 33.2019 70.5711 35.6932C70.5711 38.226 68.8196 39.6213 67.0702 39.6213C65.2122 39.6213 63.4836 38.1136 63.4836 35.7169C63.4836 33.2277 65.2795 31.743 67.1079 31.743Z" fill="#3B3A40"/>
<path d="M85.1639 29.1851C81.8766 29.1851 79.1162 31.8014 79.1162 35.6592C79.1162 39.7433 82.1929 42.1651 85.4721 42.1651C88.2155 42.1651 89.9064 40.6649 90.9041 39.3198L88.6626 37.8284C88.081 38.73 87.1084 39.6132 85.4861 39.6132C83.6636 39.6132 82.8255 38.6155 82.306 37.6473L90.9995 34.0407L90.556 32.9839C89.7165 30.9145 87.7565 29.1851 85.1639 29.1851ZM85.277 31.6787C86.4617 31.6787 87.3138 32.3084 87.676 33.0637L81.8699 35.49C81.6187 33.6113 83.3998 31.6787 85.2696 31.6787H85.277Z" fill="#3B3A40"/>
<path d="M74.9658 41.7808H77.8215V22.6711H74.9658V41.7808Z" fill="#3B3A40"/>
</svg>
