<svg width="40" height="40" viewBox="0 0 40 40" fill="none" xmlns="http://www.w3.org/2000/svg">
<rect opacity="0.01" x="40" width="40" height="40" transform="rotate(90 40 0)" fill="white"/>
<path d="M29.2667 34.9999C29.0001 35.001 28.7372 34.9381 28.5 34.8166L20 30.3666L11.5 34.8166C10.9369 35.1127 10.2543 35.0624 9.74073 34.6869C9.22712 34.3115 8.97207 33.6763 9.08335 33.0499L10.75 23.6666L3.88335 16.9999C3.44677 16.5643 3.28649 15.9231 3.46668 15.3333C3.66375 14.729 4.18739 14.2894 4.81668 14.1999L14.3167 12.8166L18.5 4.2666C18.7785 3.69162 19.3611 3.32642 20 3.32642C20.6389 3.32642 21.2215 3.69162 21.5 4.2666L25.7333 12.7999L35.2333 14.1833C35.8626 14.2727 36.3863 14.7123 36.5834 15.3166C36.7635 15.9065 36.6033 16.5476 36.1667 16.9833L29.3 23.6499L30.9667 33.0333C31.0882 33.6713 30.828 34.3217 30.3 34.6999C29.9982 34.9114 29.6348 35.0169 29.2667 34.9999Z" fill="white"/>
</svg>
