<svg width="40" height="40" viewBox="0 0 40 40" fill="none" xmlns="http://www.w3.org/2000/svg">
<rect opacity="0.01" width="40" height="40" fill="white"/>
<path d="M15 5H8.33333C6.49238 5 5 6.49238 5 8.33333V15C5 16.841 6.49238 18.3333 8.33333 18.3333H15C16.841 18.3333 18.3333 16.841 18.3333 15V8.33333C18.3333 6.49238 16.841 5 15 5Z" fill="white"/>
<path d="M31.6666 5H25C23.159 5 21.6666 6.49238 21.6666 8.33333V15C21.6666 16.841 23.159 18.3333 25 18.3333H31.6666C33.5076 18.3333 35 16.841 35 15V8.33333C35 6.49238 33.5076 5 31.6666 5Z" fill="white"/>
<path d="M15 21.6667H8.33333C6.49238 21.6667 5 23.1591 5 25.0001V31.6667C5 33.5077 6.49238 35.0001 8.33333 35.0001H15C16.841 35.0001 18.3333 33.5077 18.3333 31.6667V25.0001C18.3333 23.1591 16.841 21.6667 15 21.6667Z" fill="white"/>
<path d="M31.6666 21.6667H25C23.159 21.6667 21.6666 23.1591 21.6666 25.0001V31.6667C21.6666 33.5077 23.159 35.0001 25 35.0001H31.6666C33.5076 35.0001 35 33.5077 35 31.6667V25.0001C35 23.1591 33.5076 21.6667 31.6666 21.6667Z" fill="white"/>
</svg>
