<svg width="40" height="40" viewBox="0 0 40 40" fill="none" xmlns="http://www.w3.org/2000/svg">
<rect opacity="0.01" width="40" height="40" fill="white"/>
<path fill-rule="evenodd" clip-rule="evenodd" d="M25.0833 8.61668L35.7833 19.3C36.9636 20.4839 36.9636 22.3995 35.7833 23.5833L23.5833 35.7833C23.0165 36.3475 22.2498 36.665 21.45 36.6667C20.6452 36.6658 19.873 36.3485 19.3 35.7833L8.61668 25.0833C8.34253 24.8108 8.17167 24.4514 8.13335 24.0667L6.66668 8.48335C6.62122 7.98911 6.79841 7.50032 7.15001 7.15001C7.50032 6.79841 7.98911 6.62122 8.48335 6.66668L24.0667 8.13335C24.4514 8.17167 24.8108 8.34253 25.0833 8.61668ZM16.5418 19.8433C17.4764 20.2301 18.5519 20.0157 19.2667 19.3V19.2667C20.2285 18.2983 20.2285 16.7351 19.2667 15.7667C18.5519 15.051 17.4764 14.8366 16.5418 15.2234C15.6073 15.6101 14.9978 16.5219 14.9978 17.5334C14.9978 18.5448 15.6073 19.4566 16.5418 19.8433Z" fill="white"/>
</svg>
