<svg width="95" height="31" viewBox="0 0 95 31" fill="none" xmlns="http://www.w3.org/2000/svg">
<path fill-rule="evenodd" clip-rule="evenodd" d="M23.5028 12.7794C23.5024 12.8018 23.5019 12.8296 23.5013 12.8472H23.504C23.504 12.7101 23.5036 12.7332 23.5028 12.7794ZM23.5012 12.8472C23.5006 12.8666 23.4999 12.8736 23.499 12.8472L23.4972 12.8472C23.4972 16.3365 22.3333 19.1255 20.3301 21.072C18.3281 23.0168 15.5315 24.0756 12.26 24.1102C12.1718 24.1111 12.1233 24.112 12.1 24.1127C12.0733 24.1136 12.0803 24.1143 12.1 24.1149C12.1184 24.1155 12.1478 24.116 12.1714 24.1164H12.1715C12.2197 24.1172 12.2437 24.1176 12.1 24.1176C8.75191 24.1176 5.73008 22.7671 3.54137 20.5836C1.35039 18.3979 0 15.3812 0 12.0548C0 8.72836 1.35016 5.71438 3.54046 3.53111C5.7294 1.34897 8.75168 0 12.1 0C13.6758 0 15.1832 0.299171 16.5676 0.843076C17.9993 1.40588 19.3015 2.23568 20.4126 3.27198L18.0487 5.76634C17.2614 5.03191 16.3299 4.44054 15.2979 4.03498C14.3098 3.64651 13.2311 3.43304 12.1 3.43304C9.70103 3.43304 7.54245 4.39263 5.9852 5.94495C4.42184 7.50356 3.45821 9.66343 3.45821 12.0548C3.45821 14.447 4.42206 16.6094 5.98634 18.1698C7.54381 19.7234 9.70194 20.6846 12.1 20.6846C12.3669 20.6846 12.2348 20.688 12.1578 20.69C12.104 20.6914 12.0771 20.6921 12.2328 20.6905C14.5889 20.6655 16.5567 19.9479 17.9121 18.6311C18.97 17.6034 19.6814 16.1838 19.942 14.4142H12.1952V10.9811H21.7741H23.4777L23.4963 12.6844C23.4972 12.7744 23.4981 12.8238 23.499 12.8472L23.5012 12.8472ZM32.6114 11.7235C33.8531 11.7235 34.976 12.238 35.7876 13.0696C36.6003 13.9025 37.1031 15.0592 37.1031 16.3422C37.1031 17.6253 36.6003 18.7821 35.7876 19.6149C34.976 20.4465 33.8531 20.9609 32.6114 20.9609C31.3696 20.9609 30.2467 20.4465 29.4351 19.6149C28.6224 18.7821 28.1196 17.6253 28.1196 16.3422C28.1196 15.0592 28.6224 13.9025 29.4351 13.0696C30.2467 12.238 31.3696 11.7235 32.6114 11.7235ZM38.1621 10.8998C36.7404 9.50134 34.7778 8.63622 32.6115 8.63622C30.4452 8.63622 28.4824 9.50134 27.0606 10.8998C25.64 12.2971 24.7613 14.2217 24.7613 16.3422C24.7613 18.4627 25.64 20.3873 27.0606 21.7846C28.4824 23.1833 30.4452 24.0482 32.6115 24.0482C34.7778 24.0482 36.7404 23.1833 38.1621 21.7846C39.583 20.3873 40.4616 18.4627 40.4616 16.3422C40.4616 14.2217 39.583 12.2971 38.1621 10.8998ZM52.6713 13.0696C51.8597 12.238 50.7368 11.7235 49.4951 11.7235C48.2533 11.7235 47.1304 12.238 46.3188 13.0696C45.5063 13.9025 45.0035 15.0592 45.0035 16.3422C45.0035 17.6253 45.5063 18.7821 46.3188 19.6149C47.1304 20.4465 48.2533 20.9609 49.4951 20.9609C50.7368 20.9609 51.8597 20.4465 52.6713 19.6149C53.484 18.7821 53.9868 17.6253 53.9868 16.3422C53.9868 15.0592 53.484 13.9025 52.6713 13.0696ZM49.4952 8.63622C51.6615 8.63622 53.6241 9.50134 55.0461 10.8998C56.4667 12.2971 57.3454 14.2217 57.3454 16.3422C57.3454 18.4627 56.4667 20.3873 55.0461 21.7846C53.6241 23.1833 51.6615 24.0482 49.4952 24.0482C47.3289 24.0482 45.3663 23.1833 43.9444 21.7846C42.5237 20.3873 41.6449 18.4627 41.6449 16.3422C41.6449 14.2217 42.5237 12.2971 43.9444 10.8998C45.3663 9.50134 47.3289 8.63622 49.4952 8.63622ZM66.2446 11.7235C67.4273 11.7235 68.497 12.238 69.27 13.0696C70.0443 13.9025 70.523 15.0592 70.523 16.3422C70.523 17.6253 70.0443 18.7821 69.27 19.6149C68.497 20.4465 67.4273 21.0457 66.2446 21.0457C63.7269 21.0457 61.9662 18.9351 61.9662 16.3422C61.9662 15.0592 62.4449 13.9025 63.2191 13.0696C63.9922 12.238 65.0616 11.7235 66.2446 11.7235ZM70.1981 10.4121C69.0462 9.30317 67.7645 8.63622 65.651 8.63622C62.1117 8.63622 58.5485 12.0591 58.5485 16.3422C58.5485 18.4627 59.3436 20.3873 60.629 21.7846C61.9155 23.1833 64.0197 24.0482 65.9795 24.0482C67.7024 24.0482 69.0285 23.3799 70.1981 22.2685V23.9555C70.1981 26.4551 68.1309 27.9721 66.483 27.9721C64.157 27.9721 62.9133 27.0289 62.0799 25.1983L59.1365 26.5154C59.838 28.0564 60.8605 29.1505 62.0591 29.8829C63.4063 30.7062 64.9477 31 66.483 31C68.1642 31 69.8623 30.2957 71.1264 29.1798C72.4387 28.0213 73.4078 25.8005 73.4078 23.7529V9.0708H70.1981V10.4121ZM75.4828 23.6067H78.7969V0.992074H75.4828V23.6067ZM91.8282 18.9188C90.0858 21.8015 85.4888 21.7675 84.1842 18.6818C86.1923 17.8789 88.1949 17.0665 90.1974 16.2541C91.6865 15.65 93.1754 15.0459 94.6665 14.4459C93.5098 11.4864 91.9272 9.78357 89.9775 9.08063C86.9756 7.99822 84.0655 9.0073 82.1788 10.992C79.8664 13.4249 79.1522 18.5569 82.4894 21.9016C83.8552 23.2703 85.6828 24.1152 87.9537 24.1127C90.5041 24.0988 92.8455 23.0038 94.4528 20.6653L91.8282 18.9188ZM90.715 13.2513L83.6568 16.0734C83.553 14.5892 84.3564 13.276 85.2738 12.5067C87.6592 10.891 89.4691 11.6609 90.715 13.2513Z" fill="#969696"/>
</svg>
