<svg width="125" height="40" viewBox="0 0 125 40" fill="none" xmlns="http://www.w3.org/2000/svg">
<path fill-rule="evenodd" clip-rule="evenodd" d="M30.8302 16.4674C30.8297 16.4962 30.8291 16.5321 30.8283 16.5548H30.8319C30.8319 16.3781 30.8313 16.4079 30.8302 16.4674ZM30.8253 16.5548C30.8265 16.5887 30.8274 16.5797 30.8283 16.5548H30.8253ZM15.8725 31.0742C15.8466 31.0733 15.8374 31.0725 15.8725 31.0713C15.9031 31.0704 15.9667 31.0693 16.0823 31.0681C20.3738 31.0235 24.0423 29.6591 26.6685 27.153C29.2962 24.6449 30.8229 21.051 30.8229 16.5548H30.8253C30.8241 16.5246 30.8229 16.4609 30.8218 16.3449L30.7974 14.1501H28.5626H15.9973V18.5739H26.1593C25.8176 20.8542 24.8843 22.6835 23.4966 24.0078C21.7187 25.7046 19.1374 26.6293 16.0466 26.6614C15.8425 26.6636 15.8776 26.6627 15.9483 26.6609H15.9483H15.9483C16.0493 26.6583 16.2225 26.6539 15.8725 26.6539C12.7267 26.6539 9.89576 25.4154 7.85271 23.4133C5.80074 21.4026 4.53639 18.6162 4.53639 15.5336C4.53639 12.4522 5.80044 9.66899 7.85122 7.66058C9.89398 5.66029 12.7255 4.42377 15.8725 4.42377C17.3561 4.42377 18.7712 4.69884 20.0673 5.19942C21.4212 5.72203 22.643 6.48406 23.6758 7.43043L26.7767 4.21623C25.3191 2.88087 23.611 1.81159 21.7329 1.08638C19.917 0.385507 17.9396 0 15.8725 0C11.4802 0 7.51567 1.73826 4.64428 4.55015C1.7711 7.36348 0 11.2472 0 15.5336C0 19.82 1.7714 23.7072 4.64547 26.5238C7.51656 29.3374 11.4805 31.0777 15.8725 31.0777C16.0611 31.0777 16.0295 31.0772 15.9661 31.0761C15.9351 31.0756 15.8966 31.075 15.8725 31.0742ZM42.7789 15.1068C44.4076 15.1068 45.8806 15.7697 46.9452 16.8413C48.0113 17.9146 48.6708 19.405 48.6708 21.0584C48.6708 22.7117 48.0113 24.2024 46.9452 25.2755C45.8806 26.3471 44.4076 27.01 42.7789 27.01C41.1498 27.01 39.6768 26.3471 38.6122 25.2755C37.5461 24.2024 36.8866 22.7117 36.8866 21.0584C36.8866 19.405 37.5461 17.9146 38.6122 16.8413C39.6768 15.7697 41.1498 15.1068 42.7789 15.1068ZM50.06 14.0453C48.195 12.2433 45.6205 11.1285 42.7789 11.1285C39.9372 11.1285 37.3624 12.2433 35.4974 14.0453C33.6339 15.8459 32.4813 18.3259 32.4813 21.0584C32.4813 23.7908 33.6339 26.2708 35.4974 28.0714C37.3624 29.8737 39.9372 30.9882 42.7789 30.9882C45.6205 30.9882 48.195 29.8737 50.06 28.0714C51.9239 26.2708 53.0764 23.7908 53.0764 21.0584C53.0764 18.3259 51.9239 15.8459 50.06 14.0453ZM69.0928 16.8413C68.0282 15.7697 66.5552 15.1068 64.9264 15.1068C63.2974 15.1068 61.8244 15.7697 60.7598 16.8413C59.694 17.9146 59.0344 19.405 59.0344 21.0584C59.0344 22.7117 59.694 24.2024 60.7598 25.2755C61.8244 26.3471 63.2974 27.01 64.9264 27.01C66.5552 27.01 68.0282 26.3471 69.0928 25.2755C70.1589 24.2024 70.8184 22.7117 70.8184 21.0584C70.8184 19.405 70.1589 17.9146 69.0928 16.8413ZM64.9264 11.1285C67.7681 11.1285 70.3426 12.2433 72.2079 14.0453C74.0714 15.8459 75.224 18.3259 75.224 21.0584C75.224 23.7908 74.0714 26.2708 72.2079 28.0714C70.3426 29.8737 67.7681 30.9882 64.9264 30.9882C62.0848 30.9882 59.5103 29.8737 57.645 28.0714C55.7814 26.2708 54.6285 23.7908 54.6285 21.0584C54.6285 18.3259 55.7814 15.8459 57.645 14.0453C59.5103 12.2433 62.0848 11.1285 64.9264 11.1285ZM86.8978 15.1068C88.4492 15.1068 89.8524 15.7697 90.8665 16.8413C91.8821 17.9146 92.5101 19.4051 92.5101 21.0584C92.5101 22.7117 91.8821 24.2024 90.8665 25.2755C89.8524 26.3471 88.4492 27.1193 86.8978 27.1193C83.5951 27.1193 81.2855 24.3995 81.2855 21.0584C81.2855 19.4051 81.9135 17.9146 82.9291 16.8413C83.9432 15.7697 85.346 15.1068 86.8978 15.1068ZM92.0839 13.4169C90.5728 11.9879 88.8915 11.1285 86.1191 11.1285C81.4763 11.1285 76.8023 15.5393 76.8023 21.0584C76.8023 23.7908 77.8452 26.2708 79.5313 28.0714C81.2189 29.8737 83.9791 30.9882 86.55 30.9882C88.8101 30.9882 90.5497 30.1271 92.0839 28.6949V30.8688C92.0839 34.0897 89.3721 36.0445 87.2104 36.0445C84.1592 36.0445 82.5278 34.8291 81.4347 32.4703L77.5736 34.1674C78.4937 36.1532 79.8351 37.563 81.4073 38.5068C83.1746 39.5677 85.1965 39.9462 87.2104 39.9462C89.4158 39.9462 91.6434 39.0387 93.3016 37.6007C95.023 36.1079 96.2942 33.2462 96.2942 30.6077V11.6885H92.0839V13.4169ZM99.0163 30.4193H103.364V1.27838H99.0163V30.4193ZM120.458 24.3786C118.172 28.0931 112.142 28.0493 110.43 24.0731C113.065 23.0385 115.692 21.9916 118.319 20.9447C120.272 20.1663 122.225 19.388 124.181 18.6148C122.664 14.8012 120.587 12.607 118.03 11.7012C114.092 10.3064 110.275 11.6067 107.8 14.1641C104.766 17.2992 103.83 23.9122 108.207 28.2221C109.999 29.9858 112.396 31.0745 115.375 31.0713C118.721 31.0534 121.792 29.6424 123.901 26.629L120.458 24.3786ZM118.997 17.0754L109.739 20.7119C109.602 18.7995 110.656 17.1073 111.86 16.116C114.989 14.0339 117.363 15.0261 118.997 17.0754Z" fill="#969696"/>
</svg>
