<svg width="40" height="40" viewBox="0 0 40 40" fill="none" xmlns="http://www.w3.org/2000/svg">
<rect opacity="0.01" width="40" height="40" fill="white"/>
<path d="M18.5167 38.3334C18.3234 38.3331 18.1317 38.2993 17.95 38.2334C17.2289 37.9693 16.7815 37.2466 16.8667 36.4834L18.15 24.6667H8.33337C7.71635 24.6676 7.1493 24.3276 6.85948 23.7829C6.56967 23.2382 6.6045 22.5779 6.95003 22.0667L20.1 2.40003C20.5279 1.7668 21.3317 1.50574 22.05 1.76669C22.7392 2.02254 23.1793 2.69969 23.1334 3.43336L21.85 15.3334H31.6667C32.2837 15.3324 32.8508 15.6725 33.1406 16.2172C33.4304 16.7619 33.3956 17.4222 33.05 17.9334L19.9 37.6C19.5896 38.0593 19.0711 38.3342 18.5167 38.3334Z" fill="white"/>
</svg>
