<svg width="24" height="24" viewBox="0 0 24 24" fill="none" xmlns="http://www.w3.org/2000/svg">
<g id="Feature Icons / 03">
<g id="Group">
<path id="Vector" d="M23 6V2C23 1.73478 22.8946 1.48043 22.7071 1.29289C22.5196 1.10536 22.2652 1 22 1H2C1.73478 1 1.48043 1.10536 1.29289 1.29289C1.10536 1.48043 1 1.73478 1 2V6H23Z" fill="#2E4FD7"/>
<path id="Vector_2" d="M1 8V22C1 22.2652 1.10536 22.5196 1.29289 22.7071C1.48043 22.8946 1.73478 23 2 23H7V8H1Z" fill="#2E4FD7"/>
<path id="Vector_3" d="M9 23H22C22.2652 23 22.5196 22.8946 22.7071 22.7071C22.8946 22.5196 23 22.2652 23 22V8H9V23Z" fill="#2E4FD7"/>
</g>
</g>
</svg>
