<svg width="142" height="29" viewBox="0 0 142 29" fill="none" xmlns="http://www.w3.org/2000/svg">
<path fill-rule="evenodd" clip-rule="evenodd" d="M13.2842 4.79932V0.503362H9.59833C9.59833 0.503362 7.06454 0.350041 5.14487 2.11431C3.2252 3.87886 3.68587 6.0267 3.68587 6.0267V9.93936H0V14.5425H3.5324V27.6604H8.75373V14.602H12.7468L13.2842 9.93936H8.75373V6.56387C8.75373 4.49241 10.9039 4.79932 10.9039 4.79932H13.2842ZM22.2116 24.0933C24.079 24.0933 25.593 22.4203 25.593 20.6409V17.2656C25.593 15.4861 24.079 13.8135 22.2116 13.8135C20.3439 13.8135 18.8299 15.4861 18.8299 17.2656V20.6409C18.8299 22.4203 20.3439 24.0933 22.2116 24.0933ZM25.8741 12.3569V10.0161H30.9069V27.6604H25.8774L25.9119 25.3845C24.577 27.1654 22.6984 28.274 20.6174 28.274C16.5674 28.274 13.2843 24.6685 13.2843 18.8956C13.2843 13.0847 16.5674 9.51724 20.6174 9.51724C22.6788 9.51724 24.5419 10.6054 25.8741 12.3569ZM72.2721 17.1506C72.2721 15.3711 73.786 13.6982 75.6535 13.6982C77.5211 13.6982 79.0351 15.3711 79.0351 17.1506V20.5259C79.0351 22.3054 77.5211 23.978 75.6535 23.978C73.786 23.978 72.2721 22.3054 72.2721 20.5259V17.1506ZM71.991 27.7754V25.4346C73.3232 27.1861 75.1863 28.2742 77.2477 28.2742C81.2977 28.2742 84.5808 24.7068 84.5808 18.8956C84.5808 13.123 81.2977 9.51724 77.2477 9.51724C75.1667 9.51724 73.2881 10.6261 71.9532 12.4067L71.9877 0.754056L66.7574 1.34206V27.6949L71.991 27.7754ZM38.2398 19.0084C38.2398 24.2251 42.2713 23.9948 42.2713 23.9948C44.9972 24.0332 45.9571 23.0744 45.9571 23.0744L47.224 26.8718C45.0355 28.4827 38.4319 28.751 35.4756 26.0277C32.9175 23.6714 32.9181 19.8525 32.9646 18.8657C32.9181 17.8789 32.9175 14.0603 35.4756 11.7037C38.4319 8.98032 45.0355 9.24891 47.224 10.8599L45.9571 14.6573C45.9571 14.6573 44.9972 13.6982 42.2713 13.7368C42.2713 13.7368 38.2398 13.5065 38.2398 18.7232V19.0084ZM53.2517 17.1888C53.2517 17.1888 52.9829 13.2764 56.5153 13.2764C60.0474 13.2764 59.7786 17.1888 59.7786 17.1888H53.2517ZM64.5779 20.756C64.5779 20.756 66.6894 9.70903 56.592 9.64922C46.4944 9.58914 47.9534 19.6436 47.9534 19.6436C48.1838 25.7424 50.9865 27.507 55.7858 28.0822C60.5848 28.6577 64.2323 26.8165 64.2323 26.8165L63.1189 23.2493C63.1189 23.2493 59.2412 24.4384 56.1697 24.1698C53.0982 23.9015 53.3284 20.756 53.3284 20.756H64.5779ZM94.9405 24C96.8569 24 98.4104 22.3271 98.4104 20.5476V17.1723C98.4104 15.3928 96.8569 13.7202 94.9405 13.7202C93.0244 13.7202 91.4707 15.3928 91.4707 17.1723V20.5476C91.4707 22.3271 93.0244 24 94.9405 24ZM86.2001 19.016C86.2001 13.7202 88.4123 9.75804 94.9854 9.75804C101.261 9.75804 103.771 13.9031 103.771 19.016C103.771 25.0172 99.8375 28.2742 94.9854 28.2742C89.0507 28.2742 86.2001 24.6345 86.2001 19.016ZM117.811 20.5476C117.811 22.3271 116.257 24 114.341 24C112.425 24 110.871 22.3271 110.871 20.5476V17.1723C110.871 15.3928 112.425 13.7202 114.341 13.7202C116.257 13.7202 117.811 15.3928 117.811 17.1723V20.5476ZM114.386 9.75804C107.813 9.75804 105.6 13.7202 105.6 19.016C105.6 24.6345 108.451 28.2742 114.386 28.2742C119.238 28.2742 123.171 25.0172 123.171 19.016C123.171 13.9031 120.661 9.75804 114.386 9.75804ZM135.849 18.854L141.593 27.7374H136.147L130.361 18.7002V27.7374H125.086V1.21459L130.361 0.662202V17.9227L135.722 9.97043H141.338L135.849 18.854Z" fill="#969696"/>
</svg>
