<svg width="16" height="16" viewBox="0 0 16 16" fill="none" xmlns="http://www.w3.org/2000/svg">
<rect opacity="0.01" x="16" y="16" width="16" height="16" transform="rotate(180 16 16)" fill="#2E4FD7"/>
<path d="M10.1002 5.60012C9.06823 5.59658 8.07723 6.00359 7.34564 6.73142C6.61406 7.45925 6.20196 8.44815 6.2002 9.48012V13.4001C6.2002 13.5593 6.26341 13.7119 6.37593 13.8244C6.48845 13.9369 6.64107 14.0001 6.8002 14.0001H8.2002C8.53157 14.0001 8.8002 13.7315 8.8002 13.4001V9.48012C8.79993 9.11257 8.95606 8.76227 9.22957 8.51675C9.50308 8.27122 9.86814 8.15367 10.2335 8.19345C10.9042 8.27793 11.4055 8.85087 11.4002 9.52679V13.4001C11.4002 13.7315 11.6688 14.0001 12.0002 14.0001H13.4002C13.7316 14.0001 14.0002 13.7315 14.0002 13.4001V9.48012C13.9984 8.44815 13.5863 7.45925 12.8547 6.73142C12.1232 6.00359 11.1322 5.59658 10.1002 5.60012Z" fill="#2E4FD7"/>
<rect x="2" y="6.2002" width="3" height="7.8" rx="0.9" fill="#2E4FD7"/>
<circle cx="3.5" cy="3.5" r="1.5" fill="#2E4FD7"/>
</svg>
