<svg width="142" height="37" viewBox="0 0 142 37" fill="none" xmlns="http://www.w3.org/2000/svg">
<path fill-rule="evenodd" clip-rule="evenodd" d="M139.132 0.249023H108.514C107.051 0.249023 105.862 1.40614 105.862 2.83211V33.5113C105.862 34.9388 107.051 36.0974 108.514 36.0974H139.132C140.598 36.0974 141.792 34.9388 141.792 33.5113V2.83211C141.792 1.40614 140.598 0.249023 139.132 0.249023ZM113.855 5.18448C115.559 5.18448 116.943 6.5659 116.943 8.26647C116.943 9.96853 115.559 11.3499 113.855 11.3499C112.147 11.3499 110.764 9.96853 110.764 8.26647C110.764 6.5659 112.147 5.18448 113.855 5.18448ZM116.518 30.7966H111.189V13.6886H116.518V30.7966ZM119.861 13.6886H124.972V16.0262H125.043C125.755 14.6812 127.493 13.2634 130.086 13.2634C135.482 13.2634 136.478 16.8069 136.478 21.4127V30.7966H131.153V22.477C131.153 20.4931 131.116 17.9411 128.384 17.9411C125.611 17.9411 125.185 20.1023 125.185 22.3336V30.7966H119.861V13.6886ZM20.916 5.17681C22.6218 5.17681 24.0063 6.55823 24.0063 8.2588C24.0063 9.96236 22.6218 11.3398 20.916 11.3398C19.2121 11.3398 17.8276 9.96236 17.8276 8.2588C17.8276 6.55823 19.2121 5.17681 20.916 5.17681ZM18.2522 30.7889H23.5797V13.6809H18.2522V30.7889ZM0 5.55091V30.7958H15.8042V25.6931H5.54277V5.55091H0ZM51.1732 5.54914H45.848V30.7958H51.1732V22.3387H51.2426L56.8946 30.7958H63.5889L56.7482 21.5944L63.7348 13.6733H57.206L51.1732 20.6372V5.54914ZM26.5259 13.6834H31.6396V16.022H31.7109C32.4205 14.6754 34.1611 13.2587 36.7532 13.2587C42.152 13.2587 43.146 16.8017 43.146 21.407V30.7889H37.8188V22.4708C37.8188 20.4859 37.7822 17.9357 35.0473 17.9357C32.2781 17.9357 31.8531 20.0975 31.8531 22.3289V30.7889H26.5259V13.6834ZM72.1763 31.2304C74.9481 31.2304 77.752 29.9891 79.4569 27.8273L75.7285 25.0988C74.8403 26.3034 73.6693 27.1897 71.9286 27.1897C69.8684 27.1897 68.3389 25.8787 67.916 23.8588H80.2743V22.1933C80.2743 16.702 77.1522 13.159 72.1763 13.159C66.8506 13.159 62.5888 16.702 62.5888 22.1933C62.5888 27.6854 66.8506 31.2304 72.1763 31.2304ZM71.6783 16.9858C73.598 16.9858 74.9828 18.4743 74.9481 20.246H67.916C68.0565 18.5803 69.336 16.9858 71.6783 16.9858ZM100.535 30.7864H95.633V28.5178H95.5636C94.7442 29.7575 92.6863 31.2114 90.2706 31.2114C85.1552 31.2114 81.7822 27.5277 81.7822 22.3182C81.7822 17.5342 84.765 13.1405 89.6656 13.1405C91.8694 13.1405 93.9286 13.7424 95.1362 15.4079H95.2056V5.54901H100.535V30.7864ZM91.3689 17.8179C88.7074 17.8179 87.1096 19.591 87.1096 22.1755C87.1096 24.7644 88.7074 26.5336 91.3689 26.5336C94.0341 26.5336 95.6329 24.7644 95.6329 22.1755C95.6329 19.591 94.0341 17.8179 91.3689 17.8179Z" fill="#969696"/>
</svg>
