<svg width="105" height="31" viewBox="0 0 105 31" fill="none" xmlns="http://www.w3.org/2000/svg">
<path fill-rule="evenodd" clip-rule="evenodd" d="M52.4114 2.15343H48.6011V6.81313H46.5482V10.1755H48.6011V21.945H52.4114V10.1755H54.4954V6.81313H52.4114V2.15343ZM42.9771 0C41.5777 0 40.4764 1.09151 40.4764 2.50745C40.4764 3.89322 41.5777 4.98532 42.9771 4.98532C44.4351 4.98532 45.537 3.89322 45.537 2.50745C45.537 1.09151 44.4351 0 42.9771 0ZM103.543 6.46029C102.889 6.46029 102.382 5.95862 102.382 5.30916C102.382 4.68973 102.889 4.18806 103.543 4.18806C104.169 4.18806 104.674 4.68973 104.674 5.30916C104.674 5.95862 104.169 6.46029 103.543 6.46029ZM103.543 4.01201C102.8 4.01201 102.205 4.6017 102.205 5.30916C102.205 6.04664 102.8 6.63693 103.543 6.63693C104.258 6.63693 104.853 6.04664 104.853 5.30916C104.853 4.6017 104.258 4.01201 103.543 4.01201ZM58.9286 12.8018C59.4348 10.7961 60.9828 9.67505 62.9768 9.67505C64.9714 9.67505 66.4585 10.766 66.9354 12.8018H58.9286ZM63.0655 6.34149C58.4832 6.34149 55.0003 9.82284 55.0003 14.4535C55.0003 19.0251 58.1857 22.3878 63.1253 22.3878C65.8634 22.3878 68.3045 21.3853 70.0903 19.4967L67.5305 16.9904C66.2802 18.1706 64.9409 19.0251 63.2146 19.0251C61.1319 19.0251 59.5541 17.8449 59.0187 15.8695H70.8929V14.9552C70.8929 9.79266 67.6797 6.34149 63.0655 6.34149ZM96.7862 6.34149C94.9115 6.34149 93.3047 7.0488 92.1735 8.25911V0.413645H88.3633V21.945H92.1735V13.7159C92.1735 11.5336 93.5729 10.0285 95.8935 10.0285C98.0665 10.0285 99.2573 11.3557 99.2573 13.7159V21.945H103.067V13.0376C103.067 8.84954 100.417 6.34149 96.7862 6.34149ZM103.245 5.28016V4.80734H103.543C103.782 4.80734 103.871 4.8967 103.871 5.04434C103.871 5.19154 103.782 5.28016 103.543 5.28016H103.245ZM104.049 5.04434C104.049 4.7495 103.84 4.6307 103.543 4.6307H103.067V5.98747H103.245V5.4568H103.543L103.871 5.98747H104.078L103.722 5.42795C103.931 5.39718 104.049 5.28016 104.049 5.04434ZM80.3575 9.99948C81.9646 9.99948 83.2747 10.825 84.2866 11.9763L86.9352 9.3802C85.4475 7.52162 83.0957 6.34149 80.418 6.34149C75.8051 6.34149 72.1732 9.82284 72.1732 14.3642C72.1732 18.9069 75.8051 22.3878 80.418 22.3878C83.0957 22.3878 85.4475 21.2073 86.9352 19.3507L84.2866 16.7546C83.3044 17.8753 81.9646 18.7302 80.3284 18.7302C77.8872 18.7302 76.012 16.8428 76.012 14.3642C76.012 11.8863 77.8872 9.99948 80.3575 9.99948ZM41.1018 21.945H44.9121V6.81313H41.1018V21.945ZM13.542 18.7302C11.1009 18.7302 9.16585 16.8138 9.16585 14.3353C9.16585 11.8863 11.1009 9.99948 13.542 9.99948C16.0118 9.99948 17.9467 11.8863 17.9467 14.3642C17.9467 16.8428 16.0118 18.7302 13.542 18.7302ZM13.542 6.34149C8.92808 6.34149 5.29729 9.82284 5.29729 14.3642C5.29729 18.9069 8.92808 22.3878 13.542 22.3878C18.1548 22.3878 21.7855 18.9069 21.7855 14.3642C21.7855 9.82284 18.1548 6.34149 13.542 6.34149ZM0 21.945H3.81021V0.413645H0V21.945ZM31.3396 18.7302C28.8997 18.7302 26.9648 16.8138 26.9648 14.3353C26.9648 11.8863 28.8997 9.99948 31.3396 9.99948C33.8101 9.99948 35.745 11.8863 35.745 14.3642C35.745 16.8428 33.8101 18.7302 31.3396 18.7302ZM39.4353 9.82284V6.81313H34.0772C33.215 6.51947 32.2926 6.34149 31.3396 6.34149C26.7269 6.34149 23.0963 9.82284 23.0963 14.3642C23.0963 18.9069 26.7269 22.3878 31.3396 22.3878C35.9525 22.3878 39.5845 18.9069 39.5845 14.3642C39.5845 12.8306 39.167 11.3268 38.334 10.2057L39.4353 9.82284ZM31.3396 27.3136C28.8997 27.3136 26.9649 25.4263 26.9649 22.9781H23.0963C23.0963 27.5206 26.7269 31 31.3396 31C35.9525 31 39.5845 27.5206 39.5845 22.9781H35.7145C35.7145 25.4263 33.7795 27.3136 31.3396 27.3136Z" fill="#969696"/>
</svg>
