<svg width="126" height="37" viewBox="0 0 126 37" fill="none" xmlns="http://www.w3.org/2000/svg">
<path fill-rule="evenodd" clip-rule="evenodd" d="M62.5555 2.57022H58.0078V8.1318H55.5575V12.145H58.0078V26.1924H62.5555V12.145H65.0428V8.1318H62.5555V2.57022ZM51.2953 0C49.625 0 48.3105 1.30277 48.3105 2.99277C48.3105 4.64674 49.625 5.95022 51.2953 5.95022C53.0354 5.95022 54.3507 4.64674 54.3507 2.99277C54.3507 1.30277 53.0354 0 51.2953 0ZM123.583 7.71066C122.803 7.71066 122.198 7.1119 122.198 6.33674C122.198 5.59742 122.803 4.99865 123.583 4.99865C124.33 4.99865 124.933 5.59742 124.933 6.33674C124.933 7.1119 124.33 7.71066 123.583 7.71066ZM123.583 4.78853C122.696 4.78853 121.986 5.49236 121.986 6.33674C121.986 7.21696 122.696 7.9215 123.583 7.9215C124.437 7.9215 125.147 7.21696 125.147 6.33674C125.147 5.49236 124.437 4.78853 123.583 4.78853ZM70.3342 15.2795C70.9383 12.8857 72.7859 11.5476 75.1659 11.5476C77.5465 11.5476 79.3214 12.8497 79.8906 15.2795H70.3342ZM75.2717 7.56888C69.8025 7.56888 65.6456 11.724 65.6456 17.251C65.6456 22.7073 69.4475 26.7209 75.3431 26.7209C78.6112 26.7209 81.5248 25.5244 83.6562 23.2703L80.601 20.2789C79.1087 21.6874 77.5102 22.7073 75.4497 22.7073C72.9639 22.7073 71.0807 21.2988 70.4416 18.941H84.6142V17.8498C84.6142 11.688 80.779 7.56888 75.2717 7.56888ZM115.519 7.56888C113.281 7.56888 111.364 8.41308 110.013 9.85764V0.493704H105.466V26.1924H110.013V16.3706C110.013 13.7659 111.684 11.9695 114.454 11.9695C117.047 11.9695 118.468 13.5535 118.468 16.3706V26.1924H123.015V15.561C123.015 10.5623 119.852 7.56888 115.519 7.56888ZM123.228 6.30213V5.7378H123.583C123.868 5.7378 123.975 5.84445 123.975 6.02067C123.975 6.19636 123.868 6.30213 123.583 6.30213H123.228ZM124.187 6.02067C124.187 5.66876 123.938 5.52697 123.583 5.52697H123.015V7.14633H123.228V6.51296H123.583L123.975 7.14633H124.222L123.797 6.47853C124.046 6.4418 124.187 6.30213 124.187 6.02067ZM95.9106 11.9349C97.8287 11.9349 99.3923 12.9202 100.6 14.2943L103.761 11.1957C101.986 8.97741 99.1787 7.56888 95.9828 7.56888C90.4771 7.56888 86.1421 11.724 86.1421 17.1443C86.1421 22.5663 90.4771 26.7209 95.9828 26.7209C99.1787 26.7209 101.986 25.312 103.761 23.096L100.6 19.9974C99.4278 21.335 97.8287 22.3554 95.8759 22.3554C92.9621 22.3554 90.724 20.1027 90.724 17.1443C90.724 14.1869 92.9621 11.9349 95.9106 11.9349ZM49.0569 26.1924H53.6048V8.1318H49.0569V26.1924ZM16.163 22.3554C13.2494 22.3554 10.9399 20.0681 10.9399 17.1099C10.9399 14.1869 13.2494 11.9349 16.163 11.9349C19.1109 11.9349 21.4203 14.1869 21.4203 17.1443C21.4203 20.1027 19.1109 22.3554 16.163 22.3554ZM16.163 7.56888C10.6561 7.56888 6.32254 11.724 6.32254 17.1443C6.32254 22.5663 10.6561 26.7209 16.163 26.7209C21.6687 26.7209 26.002 22.5663 26.002 17.1443C26.002 11.724 21.6687 7.56888 16.163 7.56888ZM0 26.1924H4.54767V0.493704H0V26.1924ZM37.4053 22.3554C34.4932 22.3554 32.1838 20.0681 32.1838 17.1099C32.1838 14.1869 34.4932 11.9349 37.4053 11.9349C40.354 11.9349 42.6633 14.1869 42.6633 17.1443C42.6633 20.1027 40.354 22.3554 37.4053 22.3554ZM47.068 11.724V8.1318H40.6727C39.6436 7.7813 38.5427 7.56888 37.4053 7.56888C31.8998 7.56888 27.5665 11.724 27.5665 17.1443C27.5665 22.5663 31.8998 26.7209 37.4053 26.7209C42.911 26.7209 47.2459 22.5663 47.2459 17.1443C47.2459 15.314 46.7476 13.5191 45.7535 12.181L47.068 11.724ZM37.4053 32.6001C34.4932 32.6001 32.1838 30.3475 32.1838 27.4254H27.5665C27.5665 32.8471 31.8998 37 37.4053 37C42.911 37 47.2459 32.8471 47.2459 27.4254H42.627C42.627 30.3475 40.3175 32.6001 37.4053 32.6001Z" fill="#969696"/>
</svg>
