<svg width="107" height="20" viewBox="0 0 107 20" fill="none" xmlns="http://www.w3.org/2000/svg">
<path d="M15.672 2.20022H0.671997V4.40822C1.584 3.88022 2.688 3.30422 4.704 3.30422H6.096V15.2082C6.096 16.4562 5.904 17.4642 5.424 19.0002H10.92C10.416 17.4162 10.224 16.4082 10.224 15.2082V3.30422H11.64C13.656 3.30422 14.76 3.88022 15.672 4.40822V2.20022Z" fill="white"/>
<path d="M30.1837 6.64022C30.7117 7.81622 30.3037 9.13622 29.9197 10.3122L28.5037 14.4402L26.7277 9.71222C26.3437 8.70422 26.1757 7.55222 26.6557 6.64022H21.4477L23.0077 10.3362L21.6157 14.4402L19.8397 9.71222C19.4557 8.65622 19.2637 7.55222 19.7437 6.64022H14.5597L19.7197 19.0002H20.7517L23.6077 11.7762L26.6317 19.0002H27.6397L32.5117 6.64022H30.1837Z" fill="white"/>
<path d="M45.1911 12.2562C45.1911 9.08822 43.2951 6.30422 39.3591 6.30422C35.3991 6.30422 32.9511 9.11222 32.9511 12.8082C32.9511 16.4802 35.4231 19.3122 39.7191 19.3122C42.4071 19.3122 44.3031 18.2562 45.1431 16.8642L42.9591 15.0882C42.1671 16.9842 41.3511 18.1842 39.8871 18.1842C37.9671 18.1842 37.0551 16.1202 37.0551 12.8082H45.1911V12.2562ZM37.0791 11.7042C37.2231 8.80022 37.9671 7.40822 39.3591 7.40822C40.8951 7.40822 41.6151 9.16022 41.6151 11.7042H37.0791Z" fill="white"/>
<path d="M53.0827 6.30422C50.7067 6.30422 48.3307 7.21622 47.3467 9.61622L50.2027 10.5042C50.6347 8.44022 51.2587 7.40822 52.6747 7.40822C54.0427 7.40822 54.8587 8.27222 54.8587 10.0962V11.5602L52.6027 11.9682C49.5787 12.5202 47.0587 13.6002 47.0587 16.0722C47.0587 18.1122 48.8347 19.3122 50.9467 19.3122C53.0347 19.3122 54.5467 18.1362 55.2907 16.1682L56.9227 19.0002H58.8427V11.1762C58.8427 7.64822 55.9627 6.30422 53.0827 6.30422ZM52.4107 17.8722C51.5467 17.8722 50.8507 17.1522 50.8507 15.9522C50.8507 14.4402 51.9787 13.1442 53.6347 12.6642L54.8587 12.3042V12.9522C54.8587 16.2402 53.7547 17.8722 52.4107 17.8722Z" fill="white"/>
<path d="M65.7114 15.4242V1.24022H61.0314C61.4394 2.44022 61.7274 3.47222 61.7274 4.81622V15.4242C61.7274 16.5282 61.5594 17.4882 61.0314 19.0002H66.4074C65.9994 17.8002 65.7114 16.7682 65.7114 15.4242ZM69.1434 11.1282L73.4394 6.61622H70.8954C70.9914 7.14422 70.9434 7.84022 70.0554 8.75222L66.0234 12.8562L69.0234 16.6242C69.8154 17.6562 69.7674 18.3522 69.5514 19.0002H75.1194L69.1434 11.1282Z" fill="white"/>
<path d="M81.9795 3.68822C83.1075 3.68822 83.9715 3.92822 84.7875 4.24022L85.6035 1.60022C84.8835 1.24022 83.7555 0.928223 82.4595 0.928223C79.0995 0.928223 77.3955 3.18422 77.3955 5.96822V6.61622H75.5235V7.72022H77.3955V15.4242C77.3955 16.5282 77.2035 17.4882 76.6995 19.0002H82.0755C81.6675 17.8002 81.3795 16.7682 81.3795 15.4242V7.72022H84.2595V6.61622H80.6355C79.1235 6.61622 78.7875 5.92022 78.7875 5.39222C78.7875 4.31222 80.3235 3.68822 81.9795 3.68822Z" fill="white"/>
<path d="M93.8689 6.61622C94.2529 7.81622 94.5649 8.84822 94.5649 10.1922V14.1522C94.5649 15.7602 93.8689 17.8722 92.2129 17.8722C91.1329 17.8722 90.2929 16.9362 90.2929 15.0162V6.61622H85.6129C85.9969 7.81622 86.3089 8.84822 86.3089 10.1922V14.7522C86.3089 17.7762 88.1329 19.3122 90.6049 19.3122C93.0049 19.3122 94.3969 17.8962 94.9249 16.0482L96.6529 19.0002H98.5489V6.61622H93.8689Z" fill="white"/>
<path d="M101.852 4.81622V15.4242C101.852 16.5282 101.684 17.4882 101.156 19.0002H106.532C106.124 17.8002 105.836 16.7682 105.836 15.4242V1.24022H101.156C101.564 2.44022 101.852 3.47222 101.852 4.81622Z" fill="white"/>
</svg>
