<svg width="168" height="39" viewBox="0 0 168 39" fill="none" xmlns="http://www.w3.org/2000/svg">
<path fill-rule="evenodd" clip-rule="evenodd" d="M51 5V38.75L28.5 21.875L6 5L51 5Z" fill="#46BA71"/>
<path fill-rule="evenodd" clip-rule="evenodd" d="M0 33.75L0 0L22.5 16.875L45 33.75L0 33.75Z" fill="#2E4FD7"/>
<path d="M75.672 8.2H60.672V10.408C61.584 9.88 62.688 9.304 64.704 9.304H66.096V21.208C66.096 22.456 65.904 23.464 65.424 25H70.92C70.416 23.416 70.224 22.408 70.224 21.208V9.304H71.64C73.656 9.304 74.76 9.88 75.672 10.408V8.2ZM90.1838 12.64C90.7118 13.816 90.3038 15.136 89.9198 16.312L88.5038 20.44L86.7278 15.712C86.3438 14.704 86.1758 13.552 86.6558 12.64H81.4478L83.0078 16.336L81.6158 20.44L79.8398 15.712C79.4558 14.656 79.2638 13.552 79.7438 12.64H74.5598L79.7198 25H80.7518L83.6078 17.776L86.6318 25H87.6398L92.5118 12.64H90.1838ZM105.191 18.256C105.191 15.088 103.295 12.304 99.3591 12.304C95.3991 12.304 92.9511 15.112 92.9511 18.808C92.9511 22.48 95.4231 25.312 99.7191 25.312C102.407 25.312 104.303 24.256 105.143 22.864L102.959 21.088C102.167 22.984 101.351 24.184 99.8871 24.184C97.9671 24.184 97.0551 22.12 97.0551 18.808H105.191V18.256ZM97.0791 17.704C97.2231 14.8 97.9671 13.408 99.3591 13.408C100.895 13.408 101.615 15.16 101.615 17.704H97.0791ZM113.083 12.304C110.707 12.304 108.331 13.216 107.347 15.616L110.203 16.504C110.635 14.44 111.259 13.408 112.675 13.408C114.043 13.408 114.859 14.272 114.859 16.096V17.56L112.603 17.968C109.579 18.52 107.059 19.6 107.059 22.072C107.059 24.112 108.835 25.312 110.947 25.312C113.035 25.312 114.547 24.136 115.291 22.168L116.923 25H118.843V17.176C118.843 13.648 115.963 12.304 113.083 12.304ZM112.411 23.872C111.547 23.872 110.851 23.152 110.851 21.952C110.851 20.44 111.979 19.144 113.635 18.664L114.859 18.304V18.952C114.859 22.24 113.755 23.872 112.411 23.872ZM125.711 21.424V7.24H121.031C121.439 8.44 121.727 9.472 121.727 10.816V21.424C121.727 22.528 121.559 23.488 121.031 25H126.407C125.999 23.8 125.711 22.768 125.711 21.424ZM129.143 17.128L133.439 12.616H130.895C130.991 13.144 130.943 13.84 130.055 14.752L126.023 18.856L129.023 22.624C129.815 23.656 129.767 24.352 129.551 25H135.119L129.143 17.128ZM141.98 9.688C143.108 9.688 143.972 9.928 144.788 10.24L145.604 7.6C144.884 7.24 143.756 6.928 142.46 6.928C139.1 6.928 137.396 9.184 137.396 11.968V12.616H135.524V13.72H137.396V21.424C137.396 22.528 137.204 23.488 136.7 25H142.076C141.668 23.8 141.38 22.768 141.38 21.424V13.72H144.26V12.616H140.636C139.124 12.616 138.788 11.92 138.788 11.392C138.788 10.312 140.324 9.688 141.98 9.688ZM153.869 12.616C154.253 13.816 154.565 14.848 154.565 16.192V20.152C154.565 21.76 153.869 23.872 152.213 23.872C151.133 23.872 150.293 22.936 150.293 21.016V12.616H145.613C145.997 13.816 146.309 14.848 146.309 16.192V20.752C146.309 23.776 148.133 25.312 150.605 25.312C153.005 25.312 154.397 23.896 154.925 22.048L156.653 25H158.549V12.616H153.869ZM161.852 10.816V21.424C161.852 22.528 161.684 23.488 161.156 25H166.532C166.124 23.8 165.836 22.768 165.836 21.424V7.24H161.156C161.564 8.44 161.852 9.472 161.852 10.816Z" fill="#1A1A1A"/>
</svg>
