<svg width="116" height="26" viewBox="0 0 116 26" fill="none" xmlns="http://www.w3.org/2000/svg">
<g clip-path="url(#clip0_217_357)">
<path d="M41.119 14.8516L40.4346 16.779H40.3776C40.2635 16.3444 40.0544 15.683 39.7122 14.8894L36.0432 5.72518H32.4502V20.3313H34.8265V11.3182C34.8265 10.7513 34.8265 10.1089 34.8075 9.31529C34.7885 8.91849 34.7505 8.61617 34.7315 8.38942H34.7885C34.9025 8.95628 35.0356 9.37198 35.1307 9.63651L39.5411 20.2935H41.214L45.5865 9.54204C45.6815 9.2964 45.7766 8.80512 45.8716 8.38942H45.9287C45.8716 9.46646 45.8336 10.4301 45.8146 11.0159V20.2746H48.343V5.68739H44.8831L41.119 14.8516ZM50.7383 9.80657H53.2097V20.2746H50.7383V9.80657ZM51.993 5.38506C51.5748 5.38506 51.2326 5.53622 50.9474 5.80076C50.6623 6.06529 50.5102 6.40541 50.5102 6.82111C50.5102 7.21791 50.6623 7.55803 50.9474 7.82256C51.2326 8.0871 51.5748 8.21936 51.993 8.21936C52.4112 8.21936 52.7724 8.0682 53.0386 7.82256C53.3237 7.55803 53.4758 7.21791 53.4758 6.82111C53.4758 6.4243 53.3237 6.08419 53.0386 5.80076C52.7914 5.53622 52.4302 5.38506 51.993 5.38506ZM61.9735 9.7121C61.5173 9.61762 61.042 9.56093 60.5858 9.56093C59.4641 9.56093 58.4376 9.80657 57.5821 10.2979C56.7266 10.7891 56.0422 11.4694 55.605 12.3197C55.1488 13.1888 54.9206 14.1903 54.9206 15.3429C54.9206 16.3444 55.1487 17.2324 55.586 18.0449C56.0232 18.8385 56.6316 19.481 57.449 19.9156C58.2285 20.3502 59.141 20.5769 60.1675 20.5769C61.3462 20.5769 62.3537 20.3313 63.1522 19.8778L63.1712 19.8589V17.5915L63.0761 17.667C62.7149 17.9316 62.2967 18.1583 61.8785 18.2906C61.4412 18.4417 61.042 18.5173 60.6998 18.5173C59.7113 18.5173 58.9318 18.2339 58.3805 17.6104C57.8102 17.0057 57.5251 16.1743 57.5251 15.1351C57.5251 14.058 57.8102 13.2077 58.3996 12.5842C58.9889 11.9606 59.7683 11.6394 60.7188 11.6394C61.5173 11.6394 62.3347 11.904 63.0761 12.433L63.1712 12.5086V10.1089L63.1522 10.09C62.829 9.95774 62.4678 9.80657 61.9735 9.7121ZM70.129 9.63651C69.5207 9.63651 68.9504 9.82547 68.4561 10.2223C68.0379 10.5624 67.7527 11.0537 67.5056 11.6394H67.4866V9.80657H65.0152V20.2746H67.4866V14.9272C67.4866 14.0202 67.6767 13.2644 68.0949 12.7165C68.5131 12.1496 69.0454 11.8662 69.6918 11.8662C69.9199 11.8662 70.148 11.9229 70.4332 11.9606C70.6994 12.0362 70.8895 12.1118 71.0225 12.2063L71.1176 12.2819V9.82547L71.0606 9.80657C70.8895 9.6932 70.5473 9.63651 70.129 9.63651ZM76.8588 9.57983C75.1288 9.57983 73.741 10.09 72.7715 11.0915C71.783 12.0929 71.3077 13.4723 71.3077 15.2106C71.3077 16.8356 71.802 18.1583 72.7525 19.122C73.703 20.0667 74.9957 20.558 76.6116 20.558C78.3036 20.558 79.6533 20.0479 80.6228 19.0275C81.6114 18.0072 82.0867 16.6467 82.0867 14.965C82.0867 13.3022 81.6304 11.9795 80.6989 11.0159C79.8054 10.0522 78.4937 9.57983 76.8588 9.57983ZM78.8359 17.6292C78.3796 18.215 77.6572 18.4984 76.7637 18.4984C75.8702 18.4984 75.1478 18.215 74.6345 17.5915C74.1212 17.0057 73.8741 16.1554 73.8741 15.0784C73.8741 13.9635 74.1403 13.1133 74.6345 12.5086C75.1478 11.904 75.8512 11.6016 76.7447 11.6016C77.6192 11.6016 78.3036 11.8851 78.7978 12.4708C79.2921 13.0566 79.5583 13.9069 79.5583 15.0217C79.5202 16.1554 79.3111 17.0435 78.8359 17.6292ZM87.5997 14.1525C86.8203 13.8313 86.326 13.5856 86.0979 13.3778C85.9078 13.1888 85.8127 12.9243 85.8127 12.5842C85.8127 12.3008 85.9268 12.0173 86.2119 11.8284C86.4971 11.6394 86.8203 11.5449 87.2955 11.5449C87.7138 11.5449 88.151 11.6205 88.5692 11.7339C88.9875 11.8473 89.3677 12.0173 89.6719 12.2441L89.7669 12.3197V10.0144L89.7099 9.99553C89.4247 9.88215 89.0445 9.76878 88.5882 9.67431C88.132 9.59872 87.7138 9.56093 87.3716 9.56093C86.1929 9.56093 85.2234 9.84436 84.463 10.4679C83.7025 11.0537 83.3413 11.8473 83.3413 12.7731C83.3413 13.2644 83.4174 13.699 83.5885 14.058C83.7596 14.417 84.0067 14.7572 84.3489 15.0406C84.6911 15.3051 85.1854 15.6074 85.8697 15.8909C86.4401 16.1365 86.8773 16.3255 87.1434 16.4766C87.4096 16.6278 87.5807 16.7979 87.7138 16.9301C87.8088 17.0813 87.8659 17.2702 87.8659 17.5159C87.8659 18.215 87.3336 18.5551 86.25 18.5551C85.8317 18.5551 85.3945 18.4795 84.8812 18.3095C84.3679 18.1394 83.8927 17.8938 83.4934 17.6104L83.3984 17.5348V19.9345L83.4554 19.9534C83.8166 20.1234 84.2539 20.2368 84.7861 20.3691C85.3184 20.4635 85.7937 20.5391 86.2119 20.5391C87.4856 20.5391 88.5312 20.2557 89.2726 19.6322C90.0331 19.0275 90.4323 18.2528 90.4323 17.2513C90.4323 16.5522 90.2422 15.9287 89.8239 15.4563C89.2726 15.0028 88.5883 14.5304 87.5997 14.1525ZM96.9529 9.57983C95.2229 9.57983 93.8352 10.09 92.8656 11.0915C91.8961 12.0929 91.4018 13.4723 91.4018 15.2106C91.4018 16.8356 91.8961 18.1583 92.8466 19.122C93.7971 20.0667 95.0898 20.558 96.7057 20.558C98.3977 20.558 99.7474 20.0479 100.717 19.0275C101.706 18.0072 102.181 16.6467 102.181 14.965C102.181 13.3022 101.725 11.9795 100.793 11.0159C99.8995 10.0522 98.5878 9.57983 96.9529 9.57983ZM98.911 17.6292C98.4547 18.215 97.7323 18.4984 96.8388 18.4984C95.9263 18.4984 95.2229 18.215 94.7096 17.5915C94.1964 17.0057 93.9492 16.1554 93.9492 15.0784C93.9492 13.9635 94.2154 13.1133 94.7096 12.5086C95.2229 11.904 95.9263 11.6016 96.8198 11.6016C97.6753 11.6016 98.3787 11.8851 98.8729 12.4708C99.3672 13.0566 99.6334 13.9069 99.6334 15.0217C99.6334 16.1554 99.3862 17.0435 98.911 17.6292ZM115.393 11.8284V9.80657H112.903V6.70774L112.827 6.72663L110.469 7.42576L110.412 7.44465V9.80657H106.686V8.4839C106.686 7.87925 106.838 7.40686 107.104 7.10454C107.371 6.80221 107.77 6.65105 108.264 6.65105C108.606 6.65105 108.968 6.72663 109.367 6.89669L109.462 6.95337V4.8182L109.405 4.79931C109.063 4.68593 108.606 4.61035 108.017 4.61035C107.276 4.61035 106.629 4.78041 106.04 5.06384C105.451 5.38506 105.013 5.81965 104.69 6.40541C104.367 6.97227 104.196 7.61471 104.196 8.35163V9.80657H102.466V11.8095H104.196V20.2746H106.686V11.8284H110.412V17.2136C110.412 19.4243 111.458 20.5391 113.549 20.5391C113.891 20.5391 114.252 20.4824 114.595 20.4258C114.956 20.3502 115.222 20.2557 115.374 20.1801L115.393 20.1612V18.1394L115.298 18.215C115.146 18.3095 115.013 18.3851 114.785 18.4417C114.595 18.4984 114.424 18.5173 114.29 18.5173C113.796 18.5173 113.454 18.404 113.207 18.1205C112.979 17.856 112.865 17.4214 112.865 16.779V11.8284H115.393Z" fill="#737373"/>
<path d="M0.588379 0.8125H12.2418V12.3953H0.588379V0.8125Z" fill="#F25022"/>
<path d="M13.4585 0.8125H25.1119V12.3953H13.4585V0.8125Z" fill="#7FBA00"/>
<path d="M0.588379 13.6047H12.2418V25.1876H0.588379V13.6047Z" fill="#00A4EF"/>
<path d="M13.4585 13.6047H25.1119V25.1876H13.4585V13.6047Z" fill="#FFB900"/>
</g>
<defs>
<clipPath id="clip0_217_357">
<rect width="114.824" height="24.375" fill="white" transform="translate(0.588379 0.8125)"/>
</clipPath>
</defs>
</svg>
