<svg width="94" height="32" viewBox="0 0 94 32" fill="none" xmlns="http://www.w3.org/2000/svg">
<g clip-path="url(#clip0_217_375)">
<path fill-rule="evenodd" clip-rule="evenodd" d="M82.1776 14.9133L76.3073 25.0705L71.2988 25.0904L82.1776 5.97236L93.0157 25.0904H87.9279L82.1776 14.9123V14.9133ZM66.3707 20.6687H71.9802L69.3757 25.0904H62.0644L62.0842 19.7065V6.0899H66.3915L66.3716 20.6687H66.3707ZM50.9862 6.09089C56.3349 6.11082 60.662 10.3542 60.6421 15.5996C60.6223 20.8261 56.2952 25.0705 50.9455 25.0705C45.6167 25.0505 41.2896 20.8072 41.2896 15.5608C41.3094 10.3343 45.6366 6.09089 50.9862 6.09089V6.09089ZM50.9664 20.6498C53.8306 20.6498 56.1335 18.3897 56.1335 15.5996C56.1544 12.8105 53.8306 10.5305 50.9862 10.5305C48.1408 10.5106 45.8171 12.7906 45.8171 15.5807C45.7972 18.3697 48.121 20.6498 50.9654 20.6498H50.9664ZM33.3167 14.0905C33.2572 13.3036 33.0559 12.2627 32.7554 11.2616C32.137 9.19385 31.062 7.29289 29.6104 5.70043C28.8487 4.87566 27.9879 4.10867 26.7045 3.20521C25.7262 2.72031 24.7643 2.20272 23.8204 1.6533C23.1996 1.29968 22.4577 0.866382 21.4769 0.552613C20.3138 0.276896 19.125 0.125642 17.9303 0.101382C16.7699 0.0615386 15.6065 0.161148 14.4848 0.376304C13.3026 0.572535 12.3208 0.886304 11.0186 1.20107C8.07299 2.47806 5.78992 4.40351 3.8262 6.95849C-3.025 16.5658 3.16568 30.025 14.6048 31.6158C16.4882 31.8718 18.3716 31.7732 20.1538 31.3608L21.4164 31.0271C21.456 31.0072 21.5165 30.9873 21.5562 30.9873L22.9992 30.4374C23.0786 30.3976 23.1391 30.3777 23.2194 30.3388L23.8204 30.0639C24.9736 29.4923 26.0561 28.7869 27.0457 27.9621C26.1449 28.7842 25.1652 29.5146 24.1209 30.1426L24.1804 30.1824C24.3818 30.1227 24.5613 30.0639 24.7616 30.025C24.7616 30.025 24.7616 30.3388 24.722 30.28C24.4016 30.5161 24.9025 30.3 25.5431 29.9653C26.1848 29.6316 26.8057 29.2182 27.366 28.747C28.1882 28.0597 28.9092 27.3127 29.9308 26.0954C30.9721 24.2676 32.2753 22.6759 32.8763 20.5343C33.0767 19.9645 33.2562 19.2971 33.3772 18.6088C33.4962 17.9215 33.5775 17.2143 33.5775 16.4871C33.5577 15.76 33.4774 15.0129 33.3167 14.0905V14.0905ZM18.4916 30.2412C21.9975 29.6903 24.9421 27.746 27.3462 25.0934C28.0077 24.1302 28.5284 23.2456 29.1691 22.2834C29.9704 20.3181 29.9109 18.57 30.1708 17.3328C30.4921 15.0916 29.7304 13.2847 29.0897 11.3592C28.1079 9.11902 26.8057 7.44957 24.5216 6.15265C18.7515 2.57668 10.8986 3.57775 7.15262 8.92279C7.13279 8.92279 7.03163 9.06025 6.83129 9.33517C7.09212 8.23548 7.75364 7.58703 8.41416 6.9575C10.3779 5.34681 12.6619 4.06882 15.2664 3.44128C18.2119 3.12652 21.1357 3.44128 23.7599 4.71828C27.6874 6.9575 30.2918 10.4757 30.9523 14.6394V18.4913C30.1311 24.7985 24.722 29.5927 18.4916 30.2412V30.2412ZM32.8962 15.8974C32.7554 6.66365 23.6003 0.435074 14.6852 1.69314C12.0808 2.3406 9.23536 3.63752 7.21213 5.44543C6.23027 6.09289 5.77009 7.29218 4.78823 8.25441C0.860788 14.0118 1.54313 21.3799 6.43061 25.8604C7.05754 26.4829 7.72697 27.0607 8.434 27.5896C4.34788 25.1322 2.50416 21.4178 1.86347 16.9005C1.86347 15.2888 2.18382 13.6971 2.524 12.0864C4.80905 5.03205 12.0004 -0.0958442 19.8345 1.20107C21.1367 1.51584 22.4389 1.84953 23.7619 2.16429C25.4043 2.81175 27.0268 3.77498 28.3291 5.05296C29.6313 6.32896 30.6131 7.94064 31.595 9.5314C32.2555 10.8094 32.5768 12.4201 32.8972 13.6971C32.9567 14.4242 32.9567 15.1713 32.8972 15.8984L32.8962 15.8974Z" fill="black"/>
<path fill-rule="evenodd" clip-rule="evenodd" d="M24.7627 16.0358C24.7627 20.0052 21.4373 23.2276 17.3303 23.2276C13.2244 23.2276 9.89795 20.0052 9.89795 16.0358C9.89795 12.0673 13.2234 8.84497 17.3303 8.84497C21.4373 8.84497 24.7627 12.0673 24.7627 16.0368V16.0358Z" fill="white"/>
<path fill-rule="evenodd" clip-rule="evenodd" d="M24.8031 14.8176C24.7029 14.2678 24.5423 13.8355 24.3826 13.2268C23.7409 11.8901 22.7997 10.8492 21.557 9.96464C16.9096 6.88074 10.5185 9.8471 9.83818 15.1135C9.57834 17.1963 10.3192 19.2004 11.6412 20.7334C11.2406 20.32 10.8002 19.8887 10.4997 19.3967L10.46 19.4365C10.4997 19.554 10.6604 19.6327 10.7 19.7503C10.7 19.7503 10.5394 19.7503 10.58 19.7303C10.46 19.5939 10.5602 19.81 10.7397 20.1039C10.9004 20.3987 11.1007 20.6746 11.3407 20.9296C11.6819 21.3032 12.0419 21.6369 12.6429 22.0891C13.5256 22.5403 14.3061 23.13 15.3277 23.4049C15.6083 23.4846 15.9287 23.5623 16.25 23.6211C16.5902 23.6809 16.9105 23.7008 17.2716 23.7008C17.6117 23.7008 17.9727 23.6609 18.4131 23.5812C18.8672 23.5275 19.316 23.4359 19.755 23.3073C20.7354 23.0109 21.6386 22.5007 22.4 21.8132C22.7809 21.4606 23.3224 21.0083 23.7419 20.4186C24.0831 19.7513 24.1228 19.4166 24.2834 19.1217C24.4431 18.8269 24.6434 18.4932 24.7843 18.041C24.8991 17.5045 24.9661 16.9588 24.9846 16.4104C24.9648 15.8605 24.9251 15.3296 24.8041 14.8186L24.8031 14.8176ZM20.0346 11.1639C20.716 11.5564 20.8162 11.6152 20.4552 11.3602C20.9768 11.4777 21.2972 11.7726 21.6175 12.0674C22.399 12.9519 23.0397 13.9928 23.3601 15.1911C23.5406 16.5468 23.3997 17.9025 22.8196 19.1018C21.7782 20.9286 20.115 22.1469 18.1314 22.4806C17.9113 22.4806 17.6712 22.4806 17.4501 22.5005C18.0114 22.4019 18.3724 22.0483 19.394 21.6747C20.4948 21.2823 21.7375 19.4554 22.3395 18.3936C24.1019 15.5049 22.0182 12.8334 20.0346 11.1639V11.1639ZM16.2689 22.5194C13.2241 22.2056 10.8795 19.7104 10.5592 16.8218C10.8389 18.4334 11.8009 19.6706 13.1031 20.7713C13.5643 21.0661 14.2446 21.4785 14.7058 21.7733C15.4873 22.0682 15.9475 22.3829 16.7092 22.5204H16.2689V22.5194ZM24.4619 17.274C24.3231 17.8836 24.1823 18.4723 24.0414 19.0819C23.7409 19.829 23.3006 20.595 22.6996 21.2036C22.0985 21.8132 21.3369 22.2843 20.5762 22.7366C19.9751 23.0503 19.2135 23.2077 18.5926 23.3641C18.2316 23.4039 17.8111 23.2466 17.4501 23.2276C21.8982 23.1091 24.943 18.9644 24.2824 14.8575C23.9611 13.6592 23.3204 12.6172 22.5389 11.5763C22.2185 11.1241 21.5967 10.8492 21.1365 10.3969C18.3516 8.6488 14.6662 9.00242 12.5626 11.3014C12.2676 11.6035 11.993 11.925 11.7404 12.2636C12.8631 10.6131 14.6662 9.45464 16.8292 9.11996C17.5909 9.10003 18.3724 9.23849 19.1331 9.37595C22.4992 10.3969 25.0035 13.6592 24.4619 17.275V17.274Z" fill="#D7DF23"/>
</g>
<defs>
<clipPath id="clip0_217_375">
<rect width="92.2353" height="31.875" fill="white" transform="translate(0.882324 0.0625)"/>
</clipPath>
</defs>
</svg>
