<svg width="80" height="28" viewBox="0 0 80 28" fill="none" xmlns="http://www.w3.org/2000/svg">
<path d="M65.472 27.725C72.9811 27.725 79.091 21.5405 79.091 13.94C79.091 6.33503 72.9811 0.155029 65.472 0.155029C57.9614 0.155029 51.853 6.33503 51.853 13.94C51.853 21.5405 57.9614 27.725 65.472 27.725ZM65.472 9.02453C68.148 9.02453 70.3274 11.2295 70.3274 13.9385C70.3274 16.6475 68.1466 18.8495 65.4705 18.8495C62.7929 18.8495 60.6166 16.6475 60.6166 13.937C60.6166 11.225 62.7944 9.02153 65.4705 9.02153L65.472 9.02453ZM14.0897 27.725C21.5988 27.725 27.7087 21.5405 27.7087 13.94C27.7087 6.33503 21.5988 0.155029 14.0897 0.155029C6.5821 0.155029 0.470703 6.33503 0.470703 13.94C0.470703 21.5405 6.5821 27.725 14.0897 27.725ZM14.0897 9.02453C16.7673 9.02453 18.9451 11.2295 18.9451 13.9385C18.9451 16.6475 16.7673 18.8495 14.0897 18.8495C11.4136 18.8495 9.23728 16.6475 9.23728 13.937C9.23728 11.225 11.4151 9.02153 14.0897 9.02153V9.02453ZM39.7734 8.71403L35.5922 0.335029H25.8023L34.9463 18.665V27.2945H44.6019V18.665L53.7459 0.335029H43.9516L39.7749 8.71403H39.7734Z" fill="#EE2E24"/>
</svg>
