<svg width="104" height="20" viewBox="0 0 104 20" fill="none" xmlns="http://www.w3.org/2000/svg">
<path fill-rule="evenodd" clip-rule="evenodd" d="M35.2265 0.882052H29.6493V8.13022H23.8409V0.882052H18.2614V19.1192H23.8409V11.9447H29.6493V19.1192H35.2265V0.882052ZM54.6376 15.4558V0.882052H49.0578V19.1192H59.1462L59.9855 15.4558H54.6376ZM39.3537 19.1192H44.9319V0.882052H39.3537V19.1192ZM61.9735 19.1192H67.5507V0.882052H61.9735V19.1192ZM95.0596 5.5352C95.0596 4.54421 96.054 4.08507 97.6578 4.08507C99.4153 4.08507 101.327 4.46711 102.624 5.00335L102.168 1.03436C100.715 0.729727 99.4153 0.5 97.0472 0.5C92.5386 0.5 89.4823 2.27483 89.4823 5.9956C89.4823 12.4029 98.1959 11.1073 98.1959 14.0828C98.1959 15.2264 97.3525 15.8353 95.2885 15.8353C93.4579 15.8353 90.6272 15.2264 88.948 14.3874L89.5599 18.5861C91.2401 19.1954 93.5321 19.5 95.3671 19.5C100.027 19.5 103.849 17.9734 103.849 13.3939C103.849 7.29153 95.0596 8.4361 95.0596 5.5352ZM79.3215 14.7694C84.5145 14.7694 87.801 12.097 87.801 7.44385C87.801 2.33124 84.2868 0.5 78.5544 0.5C76.3393 0.5 73.6632 0.652316 71.7528 0.882043V19.1192H77.3338V14.7694H79.3215ZM82.2976 7.52001C82.2976 9.8853 81.1543 11.4877 78.2494 11.4877H77.3338V3.95375C77.6577 3.93495 77.963 3.93495 78.2494 3.93495C80.9994 3.93495 82.2976 5.23088 82.2976 7.52001ZM7.56489 14.7694C12.7605 14.7694 16.0457 12.097 16.0457 7.44385C16.0457 2.33124 12.5302 0.5 6.80067 0.5C4.58372 0.5 1.90913 0.652316 0 0.882043V19.1192H5.57692V14.7694H7.56489ZM10.5462 7.52001C10.5462 9.8853 9.39904 11.4877 6.49546 11.4877H5.57702V3.95375C5.90369 3.93495 6.209 3.93495 6.49546 3.93495C9.24419 3.93495 10.5462 5.23088 10.5462 7.52001Z" fill="#969696"/>
</svg>
