<svg width="18" height="18" viewBox="0 0 18 18" fill="none" xmlns="http://www.w3.org/2000/svg">
<path opacity="0.01" d="M0 0H18V18H0" fill="#2E4FD7"/>
<path d="M6.06023 15.0001C8.30079 15.0751 10.4764 14.2408 12.0924 12.687C13.7084 11.1331 14.6273 8.99187 14.6402 6.7501C15.1485 6.12115 15.5259 5.39697 15.7502 4.6201C15.7844 4.49472 15.7419 4.36093 15.6415 4.27837C15.5411 4.19581 15.4017 4.17984 15.2852 4.2376C14.74 4.50004 14.0881 4.38536 13.6652 3.9526C13.1333 3.37009 12.3882 3.02782 11.5997 3.0038C10.8112 2.97977 10.0466 3.27606 9.48023 3.8251C8.69945 4.58124 8.37213 5.6913 8.61773 6.7501C6.10523 6.9001 4.38023 5.7076 3.00023 4.0726C2.91552 3.97666 2.78209 3.9399 2.6602 3.9789C2.53831 4.01791 2.45101 4.1253 2.43773 4.2526C1.89932 7.23922 3.27538 10.2456 5.88773 11.7901C5.03246 12.771 3.83139 13.3836 2.53523 13.5001C2.39287 13.5237 2.28126 13.6352 2.25754 13.7776C2.23381 13.9199 2.30322 14.0616 2.43023 14.1301C3.55787 14.6936 4.79965 14.9912 6.06023 15.0001Z" fill="#2E4FD7"/>
</svg>
