<svg width="114" height="28" viewBox="0 0 114 28" fill="none" xmlns="http://www.w3.org/2000/svg">
<g clip-path="url(#clip0_217_382)">
<path d="M40.722 10.2118V11.6994H40.7679C41.3073 10.903 42.2029 9.96495 44.1881 9.96495C45.7324 9.96495 46.9172 10.745 47.4249 11.9232H47.4708C47.9045 11.3275 48.4016 10.8766 48.9587 10.5574C49.6181 10.1789 50.3515 9.96166 51.2753 9.96166C53.3662 9.96166 55.2174 11.3111 55.2174 14.7142V21.1684H52.0299V15.1651C52.0299 13.4405 51.4022 12.4433 50.0976 12.4433C49.1421 12.4433 48.4475 13.0423 48.183 13.7795C48.0913 14.0329 48.049 14.3785 48.049 14.6681V21.1717H44.8615V14.9216C44.8615 13.457 44.2586 12.44 42.9716 12.44C41.942 12.44 41.2968 13.197 41.0323 13.8453C40.9195 14.1218 40.8842 14.441 40.8842 14.7406V21.1684H37.6932V10.2118H40.722ZM71.6696 10.2118V12.2787H71.7578C72.3431 10.6989 73.7323 9.96495 74.9523 9.96495C75.2591 9.96495 75.4283 9.98799 75.6751 10.0341V12.904C75.3825 12.8645 75.111 12.825 74.7302 12.825C73.348 12.825 72.3854 13.5754 72.1421 14.7504C72.0892 14.994 72.0716 15.2573 72.0716 15.5601V21.1717H68.7995V10.2118H71.6696ZM80.1179 6.58154V10.0308H82.8822V12.8218H80.1179V16.9391C80.1179 18.2721 80.481 18.9171 81.56 18.9171C82.0677 18.9171 82.4415 18.8579 82.7659 18.7822L82.8082 21.096C82.3745 21.2474 81.4507 21.4119 80.5128 21.4119C79.4091 21.4119 78.4889 21.0532 77.9282 20.497C77.2865 19.8617 76.9903 18.8217 76.9903 17.3406V6.58154H80.1179ZM35.4718 21.1684H32.2984V6.58154H35.4718V21.1684ZM27.0095 17.2551C27.0095 17.4558 26.9918 17.6665 26.9319 17.8475C26.6851 18.6078 25.8424 19.2496 24.7916 19.2496C23.9136 19.2496 23.2155 18.7855 23.2155 17.8014C23.2155 16.2973 24.9926 15.8793 27.013 15.8892V17.2551H27.0095ZM30.1793 14.6319C30.1793 12.147 29.044 9.96495 25.2042 9.96495C23.2331 9.96495 21.6676 10.4817 20.8143 10.9424L21.4384 12.9369C22.2176 12.4762 23.4623 12.0977 24.64 12.0977C26.5899 12.0944 26.9072 13.1278 26.9072 13.7894V13.9474C22.6584 13.9408 19.9751 15.3132 19.9751 18.1108C19.9751 19.819 21.3397 21.4185 23.7162 21.4185C25.1795 21.4185 26.3995 20.8754 27.1329 20.0033H27.2034C27.2034 20.0033 27.69 21.8957 30.3627 21.1717C30.2216 20.3818 30.1758 19.5425 30.1758 18.5321V14.6319H30.1793ZM4.03413 6.58154C4.36204 8.12514 5.2929 12.6078 5.2929 12.6078C5.68429 14.4509 6.04394 16.3829 6.31544 17.91H6.36481C6.62925 16.2874 7.04532 14.7504 7.48959 12.8481L9.05866 6.58154H12.5318L13.9986 13.0094C14.3829 14.7965 14.6897 16.1755 14.933 17.8376H14.9788C15.2432 16.1591 15.5888 14.7241 15.9661 12.8876L17.3765 6.58154H20.7085L16.5796 21.1684C13.9492 21.7048 12.9408 20.7175 12.5811 19.1508C12.2215 17.5809 11.5163 14.5957 11.5163 14.5957C11.1531 12.96 10.871 11.808 10.6736 10.1295H10.6242C10.3421 11.7916 10.0459 12.9567 9.60871 14.5924L7.87745 21.1717C5.19065 21.6719 4.25979 20.9314 3.745 18.9204C3.30072 17.1991 0.529297 6.58483 0.529297 6.58483H4.03413V6.58154ZM63.5105 17.2551C63.5105 17.4558 63.4928 17.6665 63.4329 17.8475C63.1861 18.6078 62.3434 19.2496 61.2926 19.2496C60.4147 19.2496 59.7165 18.7855 59.7165 17.8014C59.7165 16.2973 61.4936 15.8793 63.514 15.8892V17.2551H63.5105ZM66.6803 14.6319C66.6803 12.147 65.545 9.96495 61.7052 9.96495C59.7341 9.96495 58.1686 10.4817 57.3153 10.9424L57.9394 12.9369C58.7187 12.4762 59.9633 12.0977 61.141 12.0977C63.0874 12.0944 63.4082 13.1278 63.4082 13.7894V13.9474C59.1629 13.9408 56.4797 15.3132 56.4797 18.1108C56.4797 19.819 57.8477 21.4185 60.2207 21.4185C61.6805 21.4185 62.904 20.8754 63.6339 20.0033H63.7079C63.7079 20.0033 64.1945 21.8957 66.8672 21.1717C66.7262 20.3818 66.6803 19.5425 66.6803 18.5321V14.6319Z" fill="#041E42"/>
<path d="M95.7458 16.1445C96.0587 16.6772 96.0376 17.2718 95.7037 17.5433L89.9326 21.499C89.3316 21.8393 88.4318 21.4268 87.9222 20.5642C87.4091 19.6982 87.5005 18.7324 88.1015 18.3922L94.4911 15.4847C94.8918 15.3335 95.433 15.6118 95.7458 16.1445ZM103.341 16.1445C103.657 15.6118 104.195 15.3369 104.596 15.4812L110.989 18.3887C111.59 18.729 111.678 19.6947 111.168 20.5608C110.655 21.4234 109.752 21.8324 109.154 21.4956L103.383 17.5399C103.053 17.2718 103.028 16.6738 103.341 16.1445ZM99.5417 18.2891C100.171 18.2891 100.687 18.6053 100.758 19.0211L101.38 25.8878C101.38 26.5682 100.568 27.125 99.5452 27.125C98.5259 27.125 97.7105 26.5682 97.7105 25.8878L98.3291 19.0211C98.3994 18.6053 98.9161 18.2891 99.5417 18.2891ZM103.383 10.4601L109.154 6.50098C109.752 6.16074 110.655 6.56972 111.168 7.43578C111.678 8.30185 111.59 9.26758 110.989 9.60782L104.596 12.5188C104.195 12.6631 103.654 12.3882 103.341 11.8555C103.028 11.3228 103.053 10.7282 103.383 10.4601ZM94.4911 12.5188L88.1015 9.60782C87.504 9.26758 87.4126 8.30185 87.9222 7.43578C88.4318 6.56972 89.3351 6.16074 89.9326 6.50098L95.7037 10.4601C96.0376 10.7248 96.0587 11.3228 95.7458 11.8555C95.433 12.3882 94.8918 12.6631 94.4911 12.5188ZM98.3291 8.97889L97.7105 2.11223C97.7105 1.43176 98.5224 0.875 99.5452 0.875C100.568 0.875 101.38 1.43176 101.38 2.11223L100.758 8.97889C100.687 9.3913 100.171 9.71092 99.5417 9.71092C98.9161 9.71092 98.3994 9.3913 98.3291 8.97889ZM112.729 21.4715V21.2997H112.887C112.94 21.2997 112.975 21.3341 112.975 21.3856C112.975 21.4337 112.94 21.4715 112.887 21.4715H112.729ZM112.599 21.7843C112.599 21.8015 112.613 21.8186 112.634 21.8186H112.701C112.718 21.8186 112.736 21.8015 112.736 21.7843V21.5884H112.845L112.933 21.7946C112.94 21.8083 112.95 21.8186 112.964 21.8186H113.045C113.07 21.8186 113.087 21.7946 113.077 21.7705C113.045 21.7087 113.013 21.6434 112.982 21.5781C113.034 21.5609 113.115 21.5093 113.115 21.3856C113.115 21.255 113.006 21.1794 112.897 21.1794H112.634C112.616 21.1794 112.599 21.1966 112.599 21.2138V21.7843ZM112.314 21.499C112.314 21.2206 112.546 20.9938 112.831 20.9938C113.115 20.9938 113.347 21.2172 113.347 21.499C113.347 21.7774 113.119 22.0042 112.831 22.0042C112.542 22.0042 112.314 21.7774 112.314 21.499ZM112.191 21.499C112.191 21.8427 112.476 22.1245 112.831 22.1245C113.182 22.1245 113.47 21.8427 113.47 21.499C113.47 21.1553 113.182 20.8735 112.831 20.8735C112.476 20.8735 112.191 21.1553 112.191 21.499Z" fill="#FFC124"/>
</g>
<defs>
<clipPath id="clip0_217_382">
<rect width="112.941" height="26.25" fill="white" transform="translate(0.529297 0.875)"/>
</clipPath>
</defs>
</svg>
